<?xml version="1.0" encoding="UTF-8" standalone="no"?>
<svg
   width="32"
   height="32"
   viewBox="0 0 32 32"
   fill="none"
   version="1.1"
   id="svg67"
   sodipodi:docname="sun_behind_cloud_color.svg"
   inkscape:version="1.3.2 (091e20e, 2023-11-25, custom)"
   xmlns:inkscape="http://www.inkscape.org/namespaces/inkscape"
   xmlns:sodipodi="http://sodipodi.sourceforge.net/DTD/sodipodi-0.dtd"
   xmlns="http://www.w3.org/2000/svg"
   xmlns:svg="http://www.w3.org/2000/svg">
  <sodipodi:namedview
     id="namedview67"
     pagecolor="#ffffff"
     bordercolor="#000000"
     borderopacity="0.25"
     inkscape:showpageshadow="2"
     inkscape:pageopacity="0.0"
     inkscape:pagecheckerboard="0"
     inkscape:deskcolor="#d1d1d1"
     inkscape:zoom="34.34375"
     inkscape:cx="15.985441"
     inkscape:cy="16"
     inkscape:window-width="2560"
     inkscape:window-height="1334"
     inkscape:window-x="-11"
     inkscape:window-y="-11"
     inkscape:window-maximized="1"
     inkscape:current-layer="svg67" />
  <path
     d="m 10.3253,3.39009 c 1.116,-1.25624 2.6334,-1.0563 3.6043,0 l 0.5921,0.68555 c 0.2051,0.22307 0.5017,0.33874 0.8037,0.31332 L 16.378,4.07564 c 1.435,-0.3076 2.7389,0.76288 2.7389,2.42555 v 0.62634 c 0.0304,0.34192 0.3291,0.5737 0.6375,0.72434 l 0.9511,0.3974 c 1.3758,0.67193 1.7196,2.26623 0.7175,3.60433 l -0.2847,0.3758 c -0.2554,0.3452 -0.2029,0.7984 0.0512,1.1445 l 0.2847,0.3986 c 1.0363,1.2755 0.452,3.0254 -1.0118,3.6367 l -0.8188,0.342 c -0.3084,0.1288 -0.4292,0.3499 -0.4869,0.679 l -0.0569,1.0705 c -0.1993,1.4691 -1.504,2.1326 -2.5509,1.9844 l -1.247,-0.3331 c -0.2995,-0.0424 -0.6719,0.0569 -0.8712,0.3701 l -0.4498,0.615 c -1.1161,1.2584 -2.6224,1.0491 -3.3823,0.3131 L 9.76877,21.4452 C 9.55149,21.2348 9.27756,21.0552 8.9497,21.1789 L 7.69461,21.5221 C 6.65844,21.6688 5.43834,20.8723 5.24305,19.8441 L 5.09812,18.3562 C 5.0393,18.0465 4.83508,17.784 4.54935,17.6509 L 3.66893,17.3484 C 2.34497,16.7314 1.90153,15.2377 2.66171,13.9905 L 3.15794,13.3042 C 3.35726,12.9772 3.34779,12.564 3.13368,12.2465 L 2.76357,11.7226 C 1.71588,10.2308 2.44025,8.5633 3.99275,8.06343 L 4.33516,7.95318 C 4.71309,7.83149 5.07815,7.51763 5.10955,7.12185 L 5.1858,6.16105 C 5.30957,4.60152 6.73264,3.70665 8.22943,4.16168 L 8.71385,4.30894 C 9.18076,4.49115 9.54657,4.33598 9.80141,4.0584 Z"
     fill="url(#paint0_linear_18_15000)"
     id="path1"
     style="fill:url(#paint0_linear_18_15000)" />
  <path
     d="m 10.3253,3.39009 c 1.116,-1.25624 2.6334,-1.0563 3.6043,0 l 0.5921,0.68555 c 0.2051,0.22307 0.5017,0.33874 0.8037,0.31332 L 16.378,4.07564 c 1.435,-0.3076 2.7389,0.76288 2.7389,2.42555 v 0.62634 c 0.0304,0.34192 0.3291,0.5737 0.6375,0.72434 l 0.9511,0.3974 c 1.3758,0.67193 1.7196,2.26623 0.7175,3.60433 l -0.2847,0.3758 c -0.2554,0.3452 -0.2029,0.7984 0.0512,1.1445 l 0.2847,0.3986 c 1.0363,1.2755 0.452,3.0254 -1.0118,3.6367 l -0.8188,0.342 c -0.3084,0.1288 -0.4292,0.3499 -0.4869,0.679 l -0.0569,1.0705 c -0.1993,1.4691 -1.504,2.1326 -2.5509,1.9844 l -1.247,-0.3331 c -0.2995,-0.0424 -0.6719,0.0569 -0.8712,0.3701 l -0.4498,0.615 c -1.1161,1.2584 -2.6224,1.0491 -3.3823,0.3131 L 9.76877,21.4452 C 9.55149,21.2348 9.27756,21.0552 8.9497,21.1789 L 7.69461,21.5221 C 6.65844,21.6688 5.43834,20.8723 5.24305,19.8441 L 5.09812,18.3562 C 5.0393,18.0465 4.83508,17.784 4.54935,17.6509 L 3.66893,17.3484 C 2.34497,16.7314 1.90153,15.2377 2.66171,13.9905 L 3.15794,13.3042 C 3.35726,12.9772 3.34779,12.564 3.13368,12.2465 L 2.76357,11.7226 C 1.71588,10.2308 2.44025,8.5633 3.99275,8.06343 L 4.33516,7.95318 C 4.71309,7.83149 5.07815,7.51763 5.10955,7.12185 L 5.1858,6.16105 C 5.30957,4.60152 6.73264,3.70665 8.22943,4.16168 L 8.71385,4.30894 C 9.18076,4.49115 9.54657,4.33598 9.80141,4.0584 Z"
     fill="url(#paint1_radial_18_15000)"
     id="path2"
     style="fill:url(#paint1_radial_18_15000)" />
  <path
     d="m 10.3253,3.39009 c 1.116,-1.25624 2.6334,-1.0563 3.6043,0 l 0.5921,0.68555 c 0.2051,0.22307 0.5017,0.33874 0.8037,0.31332 L 16.378,4.07564 c 1.435,-0.3076 2.7389,0.76288 2.7389,2.42555 v 0.62634 c 0.0304,0.34192 0.3291,0.5737 0.6375,0.72434 l 0.9511,0.3974 c 1.3758,0.67193 1.7196,2.26623 0.7175,3.60433 l -0.2847,0.3758 c -0.2554,0.3452 -0.2029,0.7984 0.0512,1.1445 l 0.2847,0.3986 c 1.0363,1.2755 0.452,3.0254 -1.0118,3.6367 l -0.8188,0.342 c -0.3084,0.1288 -0.4292,0.3499 -0.4869,0.679 l -0.0569,1.0705 c -0.1993,1.4691 -1.504,2.1326 -2.5509,1.9844 l -1.247,-0.3331 c -0.2995,-0.0424 -0.6719,0.0569 -0.8712,0.3701 l -0.4498,0.615 c -1.1161,1.2584 -2.6224,1.0491 -3.3823,0.3131 L 9.76877,21.4452 C 9.55149,21.2348 9.27756,21.0552 8.9497,21.1789 L 7.69461,21.5221 C 6.65844,21.6688 5.43834,20.8723 5.24305,19.8441 L 5.09812,18.3562 C 5.0393,18.0465 4.83508,17.784 4.54935,17.6509 L 3.66893,17.3484 C 2.34497,16.7314 1.90153,15.2377 2.66171,13.9905 L 3.15794,13.3042 C 3.35726,12.9772 3.34779,12.564 3.13368,12.2465 L 2.76357,11.7226 C 1.71588,10.2308 2.44025,8.5633 3.99275,8.06343 L 4.33516,7.95318 C 4.71309,7.83149 5.07815,7.51763 5.10955,7.12185 L 5.1858,6.16105 C 5.30957,4.60152 6.73264,3.70665 8.22943,4.16168 L 8.71385,4.30894 C 9.18076,4.49115 9.54657,4.33598 9.80141,4.0584 Z"
     fill="url(#paint2_radial_18_15000)"
     id="path3"
     style="fill:url(#paint2_radial_18_15000)" />
  <path
     d="m 10.3253,3.39009 c 1.116,-1.25624 2.6334,-1.0563 3.6043,0 l 0.5921,0.68555 c 0.2051,0.22307 0.5017,0.33874 0.8037,0.31332 L 16.378,4.07564 c 1.435,-0.3076 2.7389,0.76288 2.7389,2.42555 v 0.62634 c 0.0304,0.34192 0.3291,0.5737 0.6375,0.72434 l 0.9511,0.3974 c 1.3758,0.67193 1.7196,2.26623 0.7175,3.60433 l -0.2847,0.3758 c -0.2554,0.3452 -0.2029,0.7984 0.0512,1.1445 l 0.2847,0.3986 c 1.0363,1.2755 0.452,3.0254 -1.0118,3.6367 l -0.8188,0.342 c -0.3084,0.1288 -0.4292,0.3499 -0.4869,0.679 l -0.0569,1.0705 c -0.1993,1.4691 -1.504,2.1326 -2.5509,1.9844 l -1.247,-0.3331 c -0.2995,-0.0424 -0.6719,0.0569 -0.8712,0.3701 l -0.4498,0.615 c -1.1161,1.2584 -2.6224,1.0491 -3.3823,0.3131 L 9.76877,21.4452 C 9.55149,21.2348 9.27756,21.0552 8.9497,21.1789 L 7.69461,21.5221 C 6.65844,21.6688 5.43834,20.8723 5.24305,19.8441 L 5.09812,18.3562 C 5.0393,18.0465 4.83508,17.784 4.54935,17.6509 L 3.66893,17.3484 C 2.34497,16.7314 1.90153,15.2377 2.66171,13.9905 L 3.15794,13.3042 C 3.35726,12.9772 3.34779,12.564 3.13368,12.2465 L 2.76357,11.7226 C 1.71588,10.2308 2.44025,8.5633 3.99275,8.06343 L 4.33516,7.95318 C 4.71309,7.83149 5.07815,7.51763 5.10955,7.12185 L 5.1858,6.16105 C 5.30957,4.60152 6.73264,3.70665 8.22943,4.16168 L 8.71385,4.30894 C 9.18076,4.49115 9.54657,4.33598 9.80141,4.0584 Z"
     fill="url(#paint3_radial_18_15000)"
     id="path4"
     style="fill:url(#paint3_radial_18_15000)" />
  <path
     d="m 10.3253,3.39009 c 1.116,-1.25624 2.6334,-1.0563 3.6043,0 l 0.5921,0.68555 c 0.2051,0.22307 0.5017,0.33874 0.8037,0.31332 L 16.378,4.07564 c 1.435,-0.3076 2.7389,0.76288 2.7389,2.42555 v 0.62634 c 0.0304,0.34192 0.3291,0.5737 0.6375,0.72434 l 0.9511,0.3974 c 1.3758,0.67193 1.7196,2.26623 0.7175,3.60433 l -0.2847,0.3758 c -0.2554,0.3452 -0.2029,0.7984 0.0512,1.1445 l 0.2847,0.3986 c 1.0363,1.2755 0.452,3.0254 -1.0118,3.6367 l -0.8188,0.342 c -0.3084,0.1288 -0.4292,0.3499 -0.4869,0.679 l -0.0569,1.0705 c -0.1993,1.4691 -1.504,2.1326 -2.5509,1.9844 l -1.247,-0.3331 c -0.2995,-0.0424 -0.6719,0.0569 -0.8712,0.3701 l -0.4498,0.615 c -1.1161,1.2584 -2.6224,1.0491 -3.3823,0.3131 L 9.76877,21.4452 C 9.55149,21.2348 9.27756,21.0552 8.9497,21.1789 L 7.69461,21.5221 C 6.65844,21.6688 5.43834,20.8723 5.24305,19.8441 L 5.09812,18.3562 C 5.0393,18.0465 4.83508,17.784 4.54935,17.6509 L 3.66893,17.3484 C 2.34497,16.7314 1.90153,15.2377 2.66171,13.9905 L 3.15794,13.3042 C 3.35726,12.9772 3.34779,12.564 3.13368,12.2465 L 2.76357,11.7226 C 1.71588,10.2308 2.44025,8.5633 3.99275,8.06343 L 4.33516,7.95318 C 4.71309,7.83149 5.07815,7.51763 5.10955,7.12185 L 5.1858,6.16105 C 5.30957,4.60152 6.73264,3.70665 8.22943,4.16168 L 8.71385,4.30894 C 9.18076,4.49115 9.54657,4.33598 9.80141,4.0584 Z"
     fill="url(#paint4_radial_18_15000)"
     id="path5"
     style="fill:url(#paint4_radial_18_15000)" />
  <path
     d="m 10.3253,3.39009 c 1.116,-1.25624 2.6334,-1.0563 3.6043,0 l 0.5921,0.68555 c 0.2051,0.22307 0.5017,0.33874 0.8037,0.31332 L 16.378,4.07564 c 1.435,-0.3076 2.7389,0.76288 2.7389,2.42555 v 0.62634 c 0.0304,0.34192 0.3291,0.5737 0.6375,0.72434 l 0.9511,0.3974 c 1.3758,0.67193 1.7196,2.26623 0.7175,3.60433 l -0.2847,0.3758 c -0.2554,0.3452 -0.2029,0.7984 0.0512,1.1445 l 0.2847,0.3986 c 1.0363,1.2755 0.452,3.0254 -1.0118,3.6367 l -0.8188,0.342 c -0.3084,0.1288 -0.4292,0.3499 -0.4869,0.679 l -0.0569,1.0705 c -0.1993,1.4691 -1.504,2.1326 -2.5509,1.9844 l -1.247,-0.3331 c -0.2995,-0.0424 -0.6719,0.0569 -0.8712,0.3701 l -0.4498,0.615 c -1.1161,1.2584 -2.6224,1.0491 -3.3823,0.3131 L 9.76877,21.4452 C 9.55149,21.2348 9.27756,21.0552 8.9497,21.1789 L 7.69461,21.5221 C 6.65844,21.6688 5.43834,20.8723 5.24305,19.8441 L 5.09812,18.3562 C 5.0393,18.0465 4.83508,17.784 4.54935,17.6509 L 3.66893,17.3484 C 2.34497,16.7314 1.90153,15.2377 2.66171,13.9905 L 3.15794,13.3042 C 3.35726,12.9772 3.34779,12.564 3.13368,12.2465 L 2.76357,11.7226 C 1.71588,10.2308 2.44025,8.5633 3.99275,8.06343 L 4.33516,7.95318 C 4.71309,7.83149 5.07815,7.51763 5.10955,7.12185 L 5.1858,6.16105 C 5.30957,4.60152 6.73264,3.70665 8.22943,4.16168 L 8.71385,4.30894 C 9.18076,4.49115 9.54657,4.33598 9.80141,4.0584 Z"
     fill="url(#paint5_radial_18_15000)"
     id="path6"
     style="fill:url(#paint5_radial_18_15000)" />
  <path
     d="m 10.3253,3.39009 c 1.116,-1.25624 2.6334,-1.0563 3.6043,0 l 0.5921,0.68555 c 0.2051,0.22307 0.5017,0.33874 0.8037,0.31332 L 16.378,4.07564 c 1.435,-0.3076 2.7389,0.76288 2.7389,2.42555 v 0.62634 c 0.0304,0.34192 0.3291,0.5737 0.6375,0.72434 l 0.9511,0.3974 c 1.3758,0.67193 1.7196,2.26623 0.7175,3.60433 l -0.2847,0.3758 c -0.2554,0.3452 -0.2029,0.7984 0.0512,1.1445 l 0.2847,0.3986 c 1.0363,1.2755 0.452,3.0254 -1.0118,3.6367 l -0.8188,0.342 c -0.3084,0.1288 -0.4292,0.3499 -0.4869,0.679 l -0.0569,1.0705 c -0.1993,1.4691 -1.504,2.1326 -2.5509,1.9844 l -1.247,-0.3331 c -0.2995,-0.0424 -0.6719,0.0569 -0.8712,0.3701 l -0.4498,0.615 c -1.1161,1.2584 -2.6224,1.0491 -3.3823,0.3131 L 9.76877,21.4452 C 9.55149,21.2348 9.27756,21.0552 8.9497,21.1789 L 7.69461,21.5221 C 6.65844,21.6688 5.43834,20.8723 5.24305,19.8441 L 5.09812,18.3562 C 5.0393,18.0465 4.83508,17.784 4.54935,17.6509 L 3.66893,17.3484 C 2.34497,16.7314 1.90153,15.2377 2.66171,13.9905 L 3.15794,13.3042 C 3.35726,12.9772 3.34779,12.564 3.13368,12.2465 L 2.76357,11.7226 C 1.71588,10.2308 2.44025,8.5633 3.99275,8.06343 L 4.33516,7.95318 C 4.71309,7.83149 5.07815,7.51763 5.10955,7.12185 L 5.1858,6.16105 C 5.30957,4.60152 6.73264,3.70665 8.22943,4.16168 L 8.71385,4.30894 C 9.18076,4.49115 9.54657,4.33598 9.80141,4.0584 Z"
     fill="url(#paint6_radial_18_15000)"
     id="path7"
     style="fill:url(#paint6_radial_18_15000)" />
  <path
     d="m 10.3253,3.39009 c 1.116,-1.25624 2.6334,-1.0563 3.6043,0 l 0.5921,0.68555 c 0.2051,0.22307 0.5017,0.33874 0.8037,0.31332 L 16.378,4.07564 c 1.435,-0.3076 2.7389,0.76288 2.7389,2.42555 v 0.62634 c 0.0304,0.34192 0.3291,0.5737 0.6375,0.72434 l 0.9511,0.3974 c 1.3758,0.67193 1.7196,2.26623 0.7175,3.60433 l -0.2847,0.3758 c -0.2554,0.3452 -0.2029,0.7984 0.0512,1.1445 l 0.2847,0.3986 c 1.0363,1.2755 0.452,3.0254 -1.0118,3.6367 l -0.8188,0.342 c -0.3084,0.1288 -0.4292,0.3499 -0.4869,0.679 l -0.0569,1.0705 c -0.1993,1.4691 -1.504,2.1326 -2.5509,1.9844 l -1.247,-0.3331 c -0.2995,-0.0424 -0.6719,0.0569 -0.8712,0.3701 l -0.4498,0.615 c -1.1161,1.2584 -2.6224,1.0491 -3.3823,0.3131 L 9.76877,21.4452 C 9.55149,21.2348 9.27756,21.0552 8.9497,21.1789 L 7.69461,21.5221 C 6.65844,21.6688 5.43834,20.8723 5.24305,19.8441 L 5.09812,18.3562 C 5.0393,18.0465 4.83508,17.784 4.54935,17.6509 L 3.66893,17.3484 C 2.34497,16.7314 1.90153,15.2377 2.66171,13.9905 L 3.15794,13.3042 C 3.35726,12.9772 3.34779,12.564 3.13368,12.2465 L 2.76357,11.7226 C 1.71588,10.2308 2.44025,8.5633 3.99275,8.06343 L 4.33516,7.95318 C 4.71309,7.83149 5.07815,7.51763 5.10955,7.12185 L 5.1858,6.16105 C 5.30957,4.60152 6.73264,3.70665 8.22943,4.16168 L 8.71385,4.30894 C 9.18076,4.49115 9.54657,4.33598 9.80141,4.0584 Z"
     fill="url(#paint7_radial_18_15000)"
     id="path8"
     style="fill:url(#paint7_radial_18_15000)" />
  <path
     d="m 10.3253,3.39009 c 1.116,-1.25624 2.6334,-1.0563 3.6043,0 l 0.5921,0.68555 c 0.2051,0.22307 0.5017,0.33874 0.8037,0.31332 L 16.378,4.07564 c 1.435,-0.3076 2.7389,0.76288 2.7389,2.42555 v 0.62634 c 0.0304,0.34192 0.3291,0.5737 0.6375,0.72434 l 0.9511,0.3974 c 1.3758,0.67193 1.7196,2.26623 0.7175,3.60433 l -0.2847,0.3758 c -0.2554,0.3452 -0.2029,0.7984 0.0512,1.1445 l 0.2847,0.3986 c 1.0363,1.2755 0.452,3.0254 -1.0118,3.6367 l -0.8188,0.342 c -0.3084,0.1288 -0.4292,0.3499 -0.4869,0.679 l -0.0569,1.0705 c -0.1993,1.4691 -1.504,2.1326 -2.5509,1.9844 l -1.247,-0.3331 c -0.2995,-0.0424 -0.6719,0.0569 -0.8712,0.3701 l -0.4498,0.615 c -1.1161,1.2584 -2.6224,1.0491 -3.3823,0.3131 L 9.76877,21.4452 C 9.55149,21.2348 9.27756,21.0552 8.9497,21.1789 L 7.69461,21.5221 C 6.65844,21.6688 5.43834,20.8723 5.24305,19.8441 L 5.09812,18.3562 C 5.0393,18.0465 4.83508,17.784 4.54935,17.6509 L 3.66893,17.3484 C 2.34497,16.7314 1.90153,15.2377 2.66171,13.9905 L 3.15794,13.3042 C 3.35726,12.9772 3.34779,12.564 3.13368,12.2465 L 2.76357,11.7226 C 1.71588,10.2308 2.44025,8.5633 3.99275,8.06343 L 4.33516,7.95318 C 4.71309,7.83149 5.07815,7.51763 5.10955,7.12185 L 5.1858,6.16105 C 5.30957,4.60152 6.73264,3.70665 8.22943,4.16168 L 8.71385,4.30894 C 9.18076,4.49115 9.54657,4.33598 9.80141,4.0584 Z"
     fill="url(#paint8_radial_18_15000)"
     id="path9"
     style="fill:url(#paint8_radial_18_15000)" />
  <path
     d="m 10.3253,3.39009 c 1.116,-1.25624 2.6334,-1.0563 3.6043,0 l 0.5921,0.68555 c 0.2051,0.22307 0.5017,0.33874 0.8037,0.31332 L 16.378,4.07564 c 1.435,-0.3076 2.7389,0.76288 2.7389,2.42555 v 0.62634 c 0.0304,0.34192 0.3291,0.5737 0.6375,0.72434 l 0.9511,0.3974 c 1.3758,0.67193 1.7196,2.26623 0.7175,3.60433 l -0.2847,0.3758 c -0.2554,0.3452 -0.2029,0.7984 0.0512,1.1445 l 0.2847,0.3986 c 1.0363,1.2755 0.452,3.0254 -1.0118,3.6367 l -0.8188,0.342 c -0.3084,0.1288 -0.4292,0.3499 -0.4869,0.679 l -0.0569,1.0705 c -0.1993,1.4691 -1.504,2.1326 -2.5509,1.9844 l -1.247,-0.3331 c -0.2995,-0.0424 -0.6719,0.0569 -0.8712,0.3701 l -0.4498,0.615 c -1.1161,1.2584 -2.6224,1.0491 -3.3823,0.3131 L 9.76877,21.4452 C 9.55149,21.2348 9.27756,21.0552 8.9497,21.1789 L 7.69461,21.5221 C 6.65844,21.6688 5.43834,20.8723 5.24305,19.8441 L 5.09812,18.3562 C 5.0393,18.0465 4.83508,17.784 4.54935,17.6509 L 3.66893,17.3484 C 2.34497,16.7314 1.90153,15.2377 2.66171,13.9905 L 3.15794,13.3042 C 3.35726,12.9772 3.34779,12.564 3.13368,12.2465 L 2.76357,11.7226 C 1.71588,10.2308 2.44025,8.5633 3.99275,8.06343 L 4.33516,7.95318 C 4.71309,7.83149 5.07815,7.51763 5.10955,7.12185 L 5.1858,6.16105 C 5.30957,4.60152 6.73264,3.70665 8.22943,4.16168 L 8.71385,4.30894 C 9.18076,4.49115 9.54657,4.33598 9.80141,4.0584 Z"
     fill="url(#paint9_radial_18_15000)"
     id="path10"
     style="fill:url(#paint9_radial_18_15000)" />
  <g
     filter="url(#filter0_d_18_15000)"
     id="g13"
     transform="translate(0,-1.5)">
    <path
       d="m 12.1356,22.0928 c 4.3243,0 7.8299,-3.5055 7.8299,-7.8298 0,-4.32437 -3.5056,-7.82993 -7.8299,-7.82993 -4.32432,0 -7.82987,3.50556 -7.82987,7.82993 0,4.3243 3.50555,7.8298 7.82987,7.8298 z"
       fill="url(#paint10_radial_18_15000)"
       id="path11"
       style="fill:url(#paint10_radial_18_15000)" />
    <path
       d="m 12.1356,22.0928 c 4.3243,0 7.8299,-3.5055 7.8299,-7.8298 0,-4.32437 -3.5056,-7.82993 -7.8299,-7.82993 -4.32432,0 -7.82987,3.50556 -7.82987,7.82993 0,4.3243 3.50555,7.8298 7.82987,7.8298 z"
       fill="url(#paint11_radial_18_15000)"
       id="path12"
       style="fill:url(#paint11_radial_18_15000)" />
    <path
       d="m 12.1356,22.0928 c 4.3243,0 7.8299,-3.5055 7.8299,-7.8298 0,-4.32437 -3.5056,-7.82993 -7.8299,-7.82993 -4.32432,0 -7.82987,3.50556 -7.82987,7.82993 0,4.3243 3.50555,7.8298 7.82987,7.8298 z"
       fill="url(#paint12_radial_18_15000)"
       id="path13"
       style="fill:url(#paint12_radial_18_15000)" />
  </g>
  <path
     d="m 12.26,21.18 c 2.2312,0 4.04,-1.8088 4.04,-4.04 0,-2.2312 -1.8088,-4.04 -4.04,-4.04 -2.2313,0 -4.04003,1.8088 -4.04003,4.04 0,2.2312 1.80873,4.04 4.04003,4.04 z"
     fill="url(#paint13_radial_18_15000)"
     id="path14"
     style="fill:url(#paint13_radial_18_15000)" />
  <path
     d="m 12.26,21.18 c 2.2312,0 4.04,-1.8088 4.04,-4.04 0,-2.2312 -1.8088,-4.04 -4.04,-4.04 -2.2313,0 -4.04003,1.8088 -4.04003,4.04 0,2.2312 1.80873,4.04 4.04003,4.04 z"
     fill="url(#paint14_radial_18_15000)"
     id="path15"
     style="fill:url(#paint14_radial_18_15000)" />
  <g
     filter="url(#filter1_i_18_15000)"
     id="g16"
     transform="translate(0,-1.5)">
    <path
       d="m 27.24,14.59 c -3.55,-3.46 -9.23,-3.4 -12.69,0.15 -0.9237,0.942 -1.5882,2.0346 -2.0162,3.2013 -0.0589,0.1604 -0.256,0.2232 -0.3985,0.1289 C 11.8244,17.8645 11.493,17.6848 11.15,17.54 10.33,17.16 9.42,16.95 8.46,16.95 4.89,16.95 2,19.84 2,23.41 2,24.93 2.53,26.33 3.41,27.44 4.6,29 6.47,30 8.58,30 c 2.54,0 9.84,0 12.69,0 2.82,0 5.31,-1.39 6.83,-3.52 2.72,-3.56 2.42,-8.68 -0.86,-11.89 z"
       fill="#e0d3ff"
       id="path16" />
  </g>
  <g
     filter="url(#filter2_ii_18_15000)"
     id="g21"
     transform="translate(0,-1.5)">
    <path
       d="m 27.24,14.59 c -3.55,-3.46 -9.23,-3.4 -12.69,0.15 -0.9237,0.942 -1.5882,2.0346 -2.0162,3.2013 -0.0589,0.1604 -0.256,0.2232 -0.3985,0.1289 C 11.8244,17.8645 11.493,17.6848 11.15,17.54 10.33,17.16 9.42,16.95 8.46,16.95 4.89,16.95 2,19.84 2,23.41 2,24.93 2.53,26.33 3.41,27.44 4.6,29 6.47,30 8.58,30 c 2.54,0 9.84,0 12.69,0 2.82,0 5.31,-1.39 6.83,-3.52 2.72,-3.56 2.42,-8.68 -0.86,-11.89 z"
       fill="#e0d3ff"
       id="path17" />
    <path
       d="m 27.24,14.59 c -3.55,-3.46 -9.23,-3.4 -12.69,0.15 -0.9237,0.942 -1.5882,2.0346 -2.0162,3.2013 -0.0589,0.1604 -0.256,0.2232 -0.3985,0.1289 C 11.8244,17.8645 11.493,17.6848 11.15,17.54 10.33,17.16 9.42,16.95 8.46,16.95 4.89,16.95 2,19.84 2,23.41 2,24.93 2.53,26.33 3.41,27.44 4.6,29 6.47,30 8.58,30 c 2.54,0 9.84,0 12.69,0 2.82,0 5.31,-1.39 6.83,-3.52 2.72,-3.56 2.42,-8.68 -0.86,-11.89 z"
       fill="url(#paint15_radial_18_15000)"
       id="path18"
       style="fill:url(#paint15_radial_18_15000)" />
    <path
       d="m 27.24,14.59 c -3.55,-3.46 -9.23,-3.4 -12.69,0.15 -0.9237,0.942 -1.5882,2.0346 -2.0162,3.2013 -0.0589,0.1604 -0.256,0.2232 -0.3985,0.1289 C 11.8244,17.8645 11.493,17.6848 11.15,17.54 10.33,17.16 9.42,16.95 8.46,16.95 4.89,16.95 2,19.84 2,23.41 2,24.93 2.53,26.33 3.41,27.44 4.6,29 6.47,30 8.58,30 c 2.54,0 9.84,0 12.69,0 2.82,0 5.31,-1.39 6.83,-3.52 2.72,-3.56 2.42,-8.68 -0.86,-11.89 z"
       fill="url(#paint16_radial_18_15000)"
       id="path19"
       style="fill:url(#paint16_radial_18_15000)" />
    <path
       d="m 27.24,14.59 c -3.55,-3.46 -9.23,-3.4 -12.69,0.15 -0.9237,0.942 -1.5882,2.0346 -2.0162,3.2013 -0.0589,0.1604 -0.256,0.2232 -0.3985,0.1289 C 11.8244,17.8645 11.493,17.6848 11.15,17.54 10.33,17.16 9.42,16.95 8.46,16.95 4.89,16.95 2,19.84 2,23.41 2,24.93 2.53,26.33 3.41,27.44 4.6,29 6.47,30 8.58,30 c 2.54,0 9.84,0 12.69,0 2.82,0 5.31,-1.39 6.83,-3.52 2.72,-3.56 2.42,-8.68 -0.86,-11.89 z"
       fill="url(#paint17_radial_18_15000)"
       id="path20"
       style="fill:url(#paint17_radial_18_15000)" />
    <path
       d="m 27.24,14.59 c -3.55,-3.46 -9.23,-3.4 -12.69,0.15 -0.9237,0.942 -1.5882,2.0346 -2.0162,3.2013 -0.0589,0.1604 -0.256,0.2232 -0.3985,0.1289 C 11.8244,17.8645 11.493,17.6848 11.15,17.54 10.33,17.16 9.42,16.95 8.46,16.95 4.89,16.95 2,19.84 2,23.41 2,24.93 2.53,26.33 3.41,27.44 4.6,29 6.47,30 8.58,30 c 2.54,0 9.84,0 12.69,0 2.82,0 5.31,-1.39 6.83,-3.52 2.72,-3.56 2.42,-8.68 -0.86,-11.89 z"
       fill="url(#paint18_radial_18_15000)"
       id="path21"
       style="fill:url(#paint18_radial_18_15000)" />
  </g>
  <defs
     id="defs67">
    <filter
       id="filter0_d_18_15000"
       x="3.70573"
       y="6.43307"
       width="16.2598"
       height="16.2598"
       filterUnits="userSpaceOnUse"
       color-interpolation-filters="sRGB">
      <feFlood
         flood-opacity="0"
         result="BackgroundImageFix"
         id="feFlood21" />
      <feColorMatrix
         in="SourceAlpha"
         type="matrix"
         values="0 0 0 0 0 0 0 0 0 0 0 0 0 0 0 0 0 0 127 0"
         result="hardAlpha"
         id="feColorMatrix21" />
      <feOffset
         dx="-0.3"
         dy="0.3"
         id="feOffset21" />
      <feGaussianBlur
         stdDeviation="0.15"
         id="feGaussianBlur21" />
      <feComposite
         in2="hardAlpha"
         operator="out"
         id="feComposite21" />
      <feColorMatrix
         type="matrix"
         values="0 0 0 0 0.921569 0 0 0 0 0.47451 0 0 0 0 0.133333 0 0 0 1 0"
         id="feColorMatrix22" />
      <feBlend
         mode="normal"
         in2="BackgroundImageFix"
         result="effect1_dropShadow_18_15000"
         id="feBlend22" />
      <feBlend
         mode="normal"
         in="SourceGraphic"
         in2="effect1_dropShadow_18_15000"
         result="shape"
         id="feBlend23" />
    </filter>
    <filter
       id="filter1_i_18_15000"
       x="2"
       y="12.0357"
       width="27.941"
       height="17.9643"
       filterUnits="userSpaceOnUse"
       color-interpolation-filters="sRGB">
      <feFlood
         flood-opacity="0"
         result="BackgroundImageFix"
         id="feFlood23" />
      <feBlend
         mode="normal"
         in="SourceGraphic"
         in2="BackgroundImageFix"
         result="shape"
         id="feBlend24" />
      <feColorMatrix
         in="SourceAlpha"
         type="matrix"
         values="0 0 0 0 0 0 0 0 0 0 0 0 0 0 0 0 0 0 127 0"
         result="hardAlpha"
         id="feColorMatrix24" />
      <feOffset
         id="feOffset24" />
      <feGaussianBlur
         stdDeviation="2"
         id="feGaussianBlur24" />
      <feComposite
         in2="hardAlpha"
         operator="arithmetic"
         k2="-1"
         k3="1"
         id="feComposite24" />
      <feColorMatrix
         type="matrix"
         values="0 0 0 0 0.701961 0 0 0 0 0.698039 0 0 0 0 0.992157 0 0 0 1 0"
         id="feColorMatrix25" />
      <feBlend
         mode="normal"
         in2="shape"
         result="effect1_innerShadow_18_15000"
         id="feBlend25" />
    </filter>
    <filter
       id="filter2_ii_18_15000"
       x="2"
       y="12.0357"
       width="27.941"
       height="17.9643"
       filterUnits="userSpaceOnUse"
       color-interpolation-filters="sRGB">
      <feFlood
         flood-opacity="0"
         result="BackgroundImageFix"
         id="feFlood25" />
      <feBlend
         mode="normal"
         in="SourceGraphic"
         in2="BackgroundImageFix"
         result="shape"
         id="feBlend26" />
      <feColorMatrix
         in="SourceAlpha"
         type="matrix"
         values="0 0 0 0 0 0 0 0 0 0 0 0 0 0 0 0 0 0 127 0"
         result="hardAlpha"
         id="feColorMatrix26" />
      <feOffset
         id="feOffset26" />
      <feGaussianBlur
         stdDeviation="3"
         id="feGaussianBlur26" />
      <feComposite
         in2="hardAlpha"
         operator="arithmetic"
         k2="-1"
         k3="1"
         id="feComposite26" />
      <feColorMatrix
         type="matrix"
         values="0 0 0 0 0.701961 0 0 0 0 0.698039 0 0 0 0 0.992157 0 0 0 1 0"
         id="feColorMatrix27" />
      <feBlend
         mode="normal"
         in2="shape"
         result="effect1_innerShadow_18_15000"
         id="feBlend27" />
      <feColorMatrix
         in="SourceAlpha"
         type="matrix"
         values="0 0 0 0 0 0 0 0 0 0 0 0 0 0 0 0 0 0 127 0"
         result="hardAlpha"
         id="feColorMatrix28" />
      <feOffset
         id="feOffset28" />
      <feGaussianBlur
         stdDeviation="1"
         id="feGaussianBlur28" />
      <feComposite
         in2="hardAlpha"
         operator="arithmetic"
         k2="-1"
         k3="1"
         id="feComposite28" />
      <feColorMatrix
         type="matrix"
         values="0 0 0 0 0.701961 0 0 0 0 0.698039 0 0 0 0 0.992157 0 0 0 1 0"
         id="feColorMatrix29" />
      <feBlend
         mode="normal"
         in2="effect1_innerShadow_18_15000"
         result="effect2_innerShadow_18_15000"
         id="feBlend29" />
    </filter>
    <linearGradient
       id="paint0_linear_18_15000"
       x1="18.2168"
       y1="7.46723"
       x2="7.02912"
       y2="21.7411"
       gradientUnits="userSpaceOnUse"
       gradientTransform="translate(0,-1.5)">
      <stop
         stop-color="#FC8B23"
         id="stop29" />
      <stop
         offset="1"
         stop-color="#E67639"
         id="stop30" />
    </linearGradient>
    <radialGradient
       id="paint1_radial_18_15000"
       cx="0"
       cy="0"
       r="1"
       gradientUnits="userSpaceOnUse"
       gradientTransform="matrix(-2.0516135,1.8372557,-1.6210294,-1.8101595,14.0192,3.46761)">
      <stop
         offset="0.300161"
         stop-color="#FFA13A"
         id="stop31" />
      <stop
         offset="1"
         stop-color="#FFA13A"
         stop-opacity="0"
         id="stop32" />
    </radialGradient>
    <radialGradient
       id="paint2_radial_18_15000"
       cx="0"
       cy="0"
       r="1"
       gradientUnits="userSpaceOnUse"
       gradientTransform="matrix(1.6535385,4.053996,-3.5768777,1.4589322,6.85385,2.59821)">
      <stop
         offset="0.300161"
         stop-color="#FF942A"
         id="stop33" />
      <stop
         offset="1"
         stop-color="#FF942A"
         stop-opacity="0"
         id="stop34" />
    </radialGradient>
    <radialGradient
       id="paint3_radial_18_15000"
       cx="0"
       cy="0"
       r="1"
       gradientUnits="userSpaceOnUse"
       gradientTransform="matrix(-1.6841602,-0.45931267,0.63597625,-2.3319319,18.6123,6.68283)">
      <stop
         offset="0.300161"
         stop-color="#FFA13D"
         id="stop35" />
      <stop
         offset="1"
         stop-color="#FFA13D"
         stop-opacity="0"
         id="stop36" />
    </radialGradient>
    <radialGradient
       id="paint4_radial_18_15000"
       cx="0"
       cy="0"
       r="1"
       gradientUnits="userSpaceOnUse"
       gradientTransform="matrix(-2.7865041,1.3473487,-0.99511354,-2.0580329,22.1337,9.2244)">
      <stop
         offset="0.300161"
         stop-color="#FFA13D"
         id="stop37" />
      <stop
         offset="1"
         stop-color="#FFA13D"
         stop-opacity="0"
         id="stop38" />
    </radialGradient>
    <radialGradient
       id="paint5_radial_18_15000"
       cx="0"
       cy="0"
       r="1"
       gradientUnits="userSpaceOnUse"
       gradientTransform="matrix(-3.4295533,-0.39808673,0.22433584,-1.9326736,22.8074,14.4606)">
      <stop
         offset="0.300161"
         stop-color="#FFA13D"
         id="stop39" />
      <stop
         offset="1"
         stop-color="#FFA13D"
         stop-opacity="0"
         id="stop40" />
    </radialGradient>
    <radialGradient
       id="paint6_radial_18_15000"
       cx="0"
       cy="0"
       r="1"
       gradientUnits="userSpaceOnUse"
       gradientTransform="matrix(2.2541771,-2.1740904,2.094479,2.171633,19.7147,18.4719)">
      <stop
         stop-color="#E0762A"
         id="stop41" />
      <stop
         offset="1"
         stop-color="#E0762A"
         stop-opacity="0"
         id="stop42" />
    </radialGradient>
    <radialGradient
       id="paint7_radial_18_15000"
       cx="0"
       cy="0"
       r="1"
       gradientUnits="userSpaceOnUse"
       gradientTransform="matrix(-1.4698159,-1.8984989,1.8289787,-1.4159934,5.20031,17.737)">
      <stop
         stop-color="#E0762A"
         id="stop43" />
      <stop
         offset="1"
         stop-color="#E0762A"
         stop-opacity="0"
         id="stop44" />
    </radialGradient>
    <radialGradient
       id="paint8_radial_18_15000"
       cx="0"
       cy="0"
       r="1"
       gradientUnits="userSpaceOnUse"
       gradientTransform="matrix(2.2047123,1.0411131,-1.2583353,2.6647127,1.92386,9.6224)">
      <stop
         stop-color="#F0851D"
         id="stop45" />
      <stop
         offset="1"
         stop-color="#F0851D"
         stop-opacity="0"
         id="stop46" />
    </radialGradient>
    <radialGradient
       id="paint9_radial_18_15000"
       cx="0"
       cy="0"
       r="1"
       gradientUnits="userSpaceOnUse"
       gradientTransform="matrix(-2.2548332,-1.7310073,1.6330591,-2.1272445,16.4778,21.9492)">
      <stop
         offset="0.336586"
         stop-color="#E3745B"
         id="stop47" />
      <stop
         offset="1"
         stop-color="#E3745B"
         stop-opacity="0"
         id="stop48" />
    </radialGradient>
    <radialGradient
       id="paint10_radial_18_15000"
       cx="0"
       cy="0"
       r="1"
       gradientUnits="userSpaceOnUse"
       gradientTransform="matrix(-6.503099,12.366119,-15.270942,-8.0306881,16.5789,9.72678)">
      <stop
         offset="0.17178"
         stop-color="#FFD13D"
         id="stop49" />
      <stop
         offset="1"
         stop-color="#DCA21C"
         id="stop50" />
      <stop
         offset="1"
         stop-color="#D89A29"
         id="stop51" />
    </radialGradient>
    <radialGradient
       id="paint11_radial_18_15000"
       cx="0"
       cy="0"
       r="1"
       gradientUnits="userSpaceOnUse"
       gradientTransform="matrix(-3.7679922,-3.091651,2.6102523,-3.1812809,9.35267,18.7711)">
      <stop
         offset="0.340699"
         stop-color="#DCA225"
         id="stop52" />
      <stop
         offset="1"
         stop-color="#DCA225"
         stop-opacity="0"
         id="stop53" />
    </radialGradient>
    <radialGradient
       id="paint12_radial_18_15000"
       cx="0"
       cy="0"
       r="1"
       gradientUnits="userSpaceOnUse"
       gradientTransform="matrix(-16.327894,3.3816415,-2.8550801,-13.785449,18.5311,12.9259)">
      <stop
         offset="0.620449"
         stop-color="#DCA225"
         stop-opacity="0"
         id="stop54" />
      <stop
         offset="1"
         stop-color="#DCA225"
         id="stop55" />
    </radialGradient>
    <radialGradient
       id="paint13_radial_18_15000"
       cx="0"
       cy="0"
       r="1"
       gradientUnits="userSpaceOnUse"
       gradientTransform="matrix(-1.2503273,-3.3498546,3.253582,-1.2143937,11.984,16.4499)">
      <stop
         offset="0.30655"
         stop-color="#CECDFF"
         id="stop56" />
      <stop
         offset="1"
         stop-color="#B7B6FA"
         id="stop57" />
    </radialGradient>
    <radialGradient
       id="paint14_radial_18_15000"
       cx="0"
       cy="0"
       r="1"
       gradientUnits="userSpaceOnUse"
       gradientTransform="matrix(-1.2401315,-0.75072496,2.4964197,-4.1238654,13.5001,15.5516)">
      <stop
         offset="0.401187"
         stop-color="#B8B7FF"
         id="stop58" />
      <stop
         offset="1"
         stop-color="#B8B7FF"
         stop-opacity="0"
         id="stop59" />
    </radialGradient>
    <radialGradient
       id="paint15_radial_18_15000"
       cx="0"
       cy="0"
       r="1"
       gradientUnits="userSpaceOnUse"
       gradientTransform="matrix(-3.788734,-12.427291,6.9822397,-2.1286899,16.4169,23.33)">
      <stop
         stop-color="#D6CCFF"
         id="stop60" />
      <stop
         offset="1"
         stop-color="#D6CCFF"
         stop-opacity="0"
         id="stop61" />
    </radialGradient>
    <radialGradient
       id="paint16_radial_18_15000"
       cx="0"
       cy="0"
       r="1"
       gradientUnits="userSpaceOnUse"
       gradientTransform="matrix(-10.153972,6.5925547,-7.363966,-11.342113,28.3138,17.1921)">
      <stop
         offset="0.189911"
         stop-color="#F2F0FF"
         id="stop62" />
      <stop
         offset="1"
         stop-color="#F2F0FF"
         stop-opacity="0"
         id="stop63" />
    </radialGradient>
    <radialGradient
       id="paint17_radial_18_15000"
       cx="0"
       cy="0"
       r="1"
       gradientUnits="userSpaceOnUse"
       gradientTransform="matrix(-8.0322466,5.1528501,-6.2791552,-9.7879275,9.06661,20.4505)">
      <stop
         stop-color="#F2F0FF"
         id="stop64" />
      <stop
         offset="0.695905"
         stop-color="#F2F0FF"
         stop-opacity="0"
         id="stop65" />
    </radialGradient>
    <radialGradient
       id="paint18_radial_18_15000"
       cx="0"
       cy="0"
       r="1"
       gradientUnits="userSpaceOnUse"
       gradientTransform="matrix(2.5006182,7.6534102,-2.8532338,0.93224435,11.2641,16.4343)">
      <stop
         stop-color="#F2F0FF"
         id="stop66" />
      <stop
         offset="1"
         stop-color="#F2F0FF"
         stop-opacity="0"
         id="stop67" />
    </radialGradient>
  </defs>
</svg>
