<?xml version="1.0" encoding="UTF-8" standalone="no"?>
<svg
   width="32"
   height="32"
   viewBox="0 0 32 32"
   fill="none"
   version="1.1"
   id="svg65"
   sodipodi:docname="sun_behind_small_cloud_color.svg"
   inkscape:version="1.3.2 (091e20e, 2023-11-25, custom)"
   xmlns:inkscape="http://www.inkscape.org/namespaces/inkscape"
   xmlns:sodipodi="http://sodipodi.sourceforge.net/DTD/sodipodi-0.dtd"
   xmlns="http://www.w3.org/2000/svg"
   xmlns:svg="http://www.w3.org/2000/svg">
  <sodipodi:namedview
     id="namedview65"
     pagecolor="#ffffff"
     bordercolor="#000000"
     borderopacity="0.25"
     inkscape:showpageshadow="2"
     inkscape:pageopacity="0.0"
     inkscape:pagecheckerboard="0"
     inkscape:deskcolor="#d1d1d1"
     inkscape:zoom="34.34375"
     inkscape:cx="16"
     inkscape:cy="16"
     inkscape:window-width="2560"
     inkscape:window-height="1334"
     inkscape:window-x="-11"
     inkscape:window-y="-11"
     inkscape:window-maximized="1"
     inkscape:current-layer="svg65" />
  <path
     d="m 12.1093,3.58945 c 1.3994,-1.57526 3.3021,-1.32455 4.5196,0 l 0.7425,0.85965 c 0.2571,0.27971 0.6292,0.42475 1.0077,0.39288 L 19.6992,4.4491 c 1.7993,-0.38572 3.4343,0.95661 3.4343,3.04151 v 0.7854 C 23.1717,8.7048 23.5462,8.9954 23.933,9.1843 l 1.1926,0.4983 c 1.7252,0.8425 2.1563,2.8417 0.8996,4.5197 l -0.357,0.4712 c -0.3202,0.4329 -0.2544,1.0011 0.0643,1.4351 l 0.357,0.4999 c 1.2995,1.5993 0.5668,3.7936 -1.2688,4.5602 l -1.0267,0.4288 c -0.3867,0.1615 -0.5382,0.4387 -0.6105,0.8515 l -0.0714,1.3423 c -0.2499,1.8422 -1.886,2.6742 -3.1987,2.4883 l -1.5637,-0.4177 c -0.3756,-0.0531 -0.8425,0.0714 -1.0924,0.4642 l -0.5641,0.7711 c -1.3994,1.5779 -3.2883,1.3156 -4.2412,0.3927 l -1.0405,-1.2602 c -0.2725,-0.2639 -0.616,-0.4891 -1.0271,-0.334 L 8.81059,26.3261 C 7.51129,26.51 5.98134,25.5112 5.73646,24.222 L 5.55473,22.3562 C 5.48097,21.9679 5.22488,21.6387 4.8666,21.4718 L 3.76259,21.0924 C 2.10242,20.3188 1.54636,18.4458 2.49959,16.8818 L 3.12184,16.0213 C 3.37178,15.6112 3.3599,15.0931 3.09142,14.6949 L 2.62732,14.038 C 1.31357,12.1673 2.22189,10.0764 4.16865,9.4496 L 4.59801,9.3113 C 5.07191,9.1587 5.52968,8.7652 5.56906,8.26888 L 5.66467,7.0641 C 5.81986,5.10853 7.60432,3.9864 9.48122,4.55698 l 0.60748,0.18467 c 0.5854,0.22848 1.0441,0.0339 1.3637,-0.31417 z"
     fill="url(#paint0_linear_18_15087)"
     id="path1"
     style="fill:url(#paint0_linear_18_15087)" />
  <path
     d="m 12.1093,3.58945 c 1.3994,-1.57526 3.3021,-1.32455 4.5196,0 l 0.7425,0.85965 c 0.2571,0.27971 0.6292,0.42475 1.0077,0.39288 L 19.6992,4.4491 c 1.7993,-0.38572 3.4343,0.95661 3.4343,3.04151 v 0.7854 C 23.1717,8.7048 23.5462,8.9954 23.933,9.1843 l 1.1926,0.4983 c 1.7252,0.8425 2.1563,2.8417 0.8996,4.5197 l -0.357,0.4712 c -0.3202,0.4329 -0.2544,1.0011 0.0643,1.4351 l 0.357,0.4999 c 1.2995,1.5993 0.5668,3.7936 -1.2688,4.5602 l -1.0267,0.4288 c -0.3867,0.1615 -0.5382,0.4387 -0.6105,0.8515 l -0.0714,1.3423 c -0.2499,1.8422 -1.886,2.6742 -3.1987,2.4883 l -1.5637,-0.4177 c -0.3756,-0.0531 -0.8425,0.0714 -1.0924,0.4642 l -0.5641,0.7711 c -1.3994,1.5779 -3.2883,1.3156 -4.2412,0.3927 l -1.0405,-1.2602 c -0.2725,-0.2639 -0.616,-0.4891 -1.0271,-0.334 L 8.81059,26.3261 C 7.51129,26.51 5.98134,25.5112 5.73646,24.222 L 5.55473,22.3562 C 5.48097,21.9679 5.22488,21.6387 4.8666,21.4718 L 3.76259,21.0924 C 2.10242,20.3188 1.54636,18.4458 2.49959,16.8818 L 3.12184,16.0213 C 3.37178,15.6112 3.3599,15.0931 3.09142,14.6949 L 2.62732,14.038 C 1.31357,12.1673 2.22189,10.0764 4.16865,9.4496 L 4.59801,9.3113 C 5.07191,9.1587 5.52968,8.7652 5.56906,8.26888 L 5.66467,7.0641 C 5.81986,5.10853 7.60432,3.9864 9.48122,4.55698 l 0.60748,0.18467 c 0.5854,0.22848 1.0441,0.0339 1.3637,-0.31417 z"
     fill="url(#paint1_radial_18_15087)"
     id="path2"
     style="fill:url(#paint1_radial_18_15087)" />
  <path
     d="m 12.1093,3.58945 c 1.3994,-1.57526 3.3021,-1.32455 4.5196,0 l 0.7425,0.85965 c 0.2571,0.27971 0.6292,0.42475 1.0077,0.39288 L 19.6992,4.4491 c 1.7993,-0.38572 3.4343,0.95661 3.4343,3.04151 v 0.7854 C 23.1717,8.7048 23.5462,8.9954 23.933,9.1843 l 1.1926,0.4983 c 1.7252,0.8425 2.1563,2.8417 0.8996,4.5197 l -0.357,0.4712 c -0.3202,0.4329 -0.2544,1.0011 0.0643,1.4351 l 0.357,0.4999 c 1.2995,1.5993 0.5668,3.7936 -1.2688,4.5602 l -1.0267,0.4288 c -0.3867,0.1615 -0.5382,0.4387 -0.6105,0.8515 l -0.0714,1.3423 c -0.2499,1.8422 -1.886,2.6742 -3.1987,2.4883 l -1.5637,-0.4177 c -0.3756,-0.0531 -0.8425,0.0714 -1.0924,0.4642 l -0.5641,0.7711 c -1.3994,1.5779 -3.2883,1.3156 -4.2412,0.3927 l -1.0405,-1.2602 c -0.2725,-0.2639 -0.616,-0.4891 -1.0271,-0.334 L 8.81059,26.3261 C 7.51129,26.51 5.98134,25.5112 5.73646,24.222 L 5.55473,22.3562 C 5.48097,21.9679 5.22488,21.6387 4.8666,21.4718 L 3.76259,21.0924 C 2.10242,20.3188 1.54636,18.4458 2.49959,16.8818 L 3.12184,16.0213 C 3.37178,15.6112 3.3599,15.0931 3.09142,14.6949 L 2.62732,14.038 C 1.31357,12.1673 2.22189,10.0764 4.16865,9.4496 L 4.59801,9.3113 C 5.07191,9.1587 5.52968,8.7652 5.56906,8.26888 L 5.66467,7.0641 C 5.81986,5.10853 7.60432,3.9864 9.48122,4.55698 l 0.60748,0.18467 c 0.5854,0.22848 1.0441,0.0339 1.3637,-0.31417 z"
     fill="url(#paint2_radial_18_15087)"
     id="path3"
     style="fill:url(#paint2_radial_18_15087)" />
  <path
     d="m 12.1093,3.58945 c 1.3994,-1.57526 3.3021,-1.32455 4.5196,0 l 0.7425,0.85965 c 0.2571,0.27971 0.6292,0.42475 1.0077,0.39288 L 19.6992,4.4491 c 1.7993,-0.38572 3.4343,0.95661 3.4343,3.04151 v 0.7854 C 23.1717,8.7048 23.5462,8.9954 23.933,9.1843 l 1.1926,0.4983 c 1.7252,0.8425 2.1563,2.8417 0.8996,4.5197 l -0.357,0.4712 c -0.3202,0.4329 -0.2544,1.0011 0.0643,1.4351 l 0.357,0.4999 c 1.2995,1.5993 0.5668,3.7936 -1.2688,4.5602 l -1.0267,0.4288 c -0.3867,0.1615 -0.5382,0.4387 -0.6105,0.8515 l -0.0714,1.3423 c -0.2499,1.8422 -1.886,2.6742 -3.1987,2.4883 l -1.5637,-0.4177 c -0.3756,-0.0531 -0.8425,0.0714 -1.0924,0.4642 l -0.5641,0.7711 c -1.3994,1.5779 -3.2883,1.3156 -4.2412,0.3927 l -1.0405,-1.2602 c -0.2725,-0.2639 -0.616,-0.4891 -1.0271,-0.334 L 8.81059,26.3261 C 7.51129,26.51 5.98134,25.5112 5.73646,24.222 L 5.55473,22.3562 C 5.48097,21.9679 5.22488,21.6387 4.8666,21.4718 L 3.76259,21.0924 C 2.10242,20.3188 1.54636,18.4458 2.49959,16.8818 L 3.12184,16.0213 C 3.37178,15.6112 3.3599,15.0931 3.09142,14.6949 L 2.62732,14.038 C 1.31357,12.1673 2.22189,10.0764 4.16865,9.4496 L 4.59801,9.3113 C 5.07191,9.1587 5.52968,8.7652 5.56906,8.26888 L 5.66467,7.0641 C 5.81986,5.10853 7.60432,3.9864 9.48122,4.55698 l 0.60748,0.18467 c 0.5854,0.22848 1.0441,0.0339 1.3637,-0.31417 z"
     fill="url(#paint3_radial_18_15087)"
     id="path4"
     style="fill:url(#paint3_radial_18_15087)" />
  <path
     d="m 12.1093,3.58945 c 1.3994,-1.57526 3.3021,-1.32455 4.5196,0 l 0.7425,0.85965 c 0.2571,0.27971 0.6292,0.42475 1.0077,0.39288 L 19.6992,4.4491 c 1.7993,-0.38572 3.4343,0.95661 3.4343,3.04151 v 0.7854 C 23.1717,8.7048 23.5462,8.9954 23.933,9.1843 l 1.1926,0.4983 c 1.7252,0.8425 2.1563,2.8417 0.8996,4.5197 l -0.357,0.4712 c -0.3202,0.4329 -0.2544,1.0011 0.0643,1.4351 l 0.357,0.4999 c 1.2995,1.5993 0.5668,3.7936 -1.2688,4.5602 l -1.0267,0.4288 c -0.3867,0.1615 -0.5382,0.4387 -0.6105,0.8515 l -0.0714,1.3423 c -0.2499,1.8422 -1.886,2.6742 -3.1987,2.4883 l -1.5637,-0.4177 c -0.3756,-0.0531 -0.8425,0.0714 -1.0924,0.4642 l -0.5641,0.7711 c -1.3994,1.5779 -3.2883,1.3156 -4.2412,0.3927 l -1.0405,-1.2602 c -0.2725,-0.2639 -0.616,-0.4891 -1.0271,-0.334 L 8.81059,26.3261 C 7.51129,26.51 5.98134,25.5112 5.73646,24.222 L 5.55473,22.3562 C 5.48097,21.9679 5.22488,21.6387 4.8666,21.4718 L 3.76259,21.0924 C 2.10242,20.3188 1.54636,18.4458 2.49959,16.8818 L 3.12184,16.0213 C 3.37178,15.6112 3.3599,15.0931 3.09142,14.6949 L 2.62732,14.038 C 1.31357,12.1673 2.22189,10.0764 4.16865,9.4496 L 4.59801,9.3113 C 5.07191,9.1587 5.52968,8.7652 5.56906,8.26888 L 5.66467,7.0641 C 5.81986,5.10853 7.60432,3.9864 9.48122,4.55698 l 0.60748,0.18467 c 0.5854,0.22848 1.0441,0.0339 1.3637,-0.31417 z"
     fill="url(#paint4_radial_18_15087)"
     id="path5"
     style="fill:url(#paint4_radial_18_15087)" />
  <path
     d="m 12.1093,3.58945 c 1.3994,-1.57526 3.3021,-1.32455 4.5196,0 l 0.7425,0.85965 c 0.2571,0.27971 0.6292,0.42475 1.0077,0.39288 L 19.6992,4.4491 c 1.7993,-0.38572 3.4343,0.95661 3.4343,3.04151 v 0.7854 C 23.1717,8.7048 23.5462,8.9954 23.933,9.1843 l 1.1926,0.4983 c 1.7252,0.8425 2.1563,2.8417 0.8996,4.5197 l -0.357,0.4712 c -0.3202,0.4329 -0.2544,1.0011 0.0643,1.4351 l 0.357,0.4999 c 1.2995,1.5993 0.5668,3.7936 -1.2688,4.5602 l -1.0267,0.4288 c -0.3867,0.1615 -0.5382,0.4387 -0.6105,0.8515 l -0.0714,1.3423 c -0.2499,1.8422 -1.886,2.6742 -3.1987,2.4883 l -1.5637,-0.4177 c -0.3756,-0.0531 -0.8425,0.0714 -1.0924,0.4642 l -0.5641,0.7711 c -1.3994,1.5779 -3.2883,1.3156 -4.2412,0.3927 l -1.0405,-1.2602 c -0.2725,-0.2639 -0.616,-0.4891 -1.0271,-0.334 L 8.81059,26.3261 C 7.51129,26.51 5.98134,25.5112 5.73646,24.222 L 5.55473,22.3562 C 5.48097,21.9679 5.22488,21.6387 4.8666,21.4718 L 3.76259,21.0924 C 2.10242,20.3188 1.54636,18.4458 2.49959,16.8818 L 3.12184,16.0213 C 3.37178,15.6112 3.3599,15.0931 3.09142,14.6949 L 2.62732,14.038 C 1.31357,12.1673 2.22189,10.0764 4.16865,9.4496 L 4.59801,9.3113 C 5.07191,9.1587 5.52968,8.7652 5.56906,8.26888 L 5.66467,7.0641 C 5.81986,5.10853 7.60432,3.9864 9.48122,4.55698 l 0.60748,0.18467 c 0.5854,0.22848 1.0441,0.0339 1.3637,-0.31417 z"
     fill="url(#paint5_radial_18_15087)"
     id="path6"
     style="fill:url(#paint5_radial_18_15087)" />
  <path
     d="m 12.1093,3.58945 c 1.3994,-1.57526 3.3021,-1.32455 4.5196,0 l 0.7425,0.85965 c 0.2571,0.27971 0.6292,0.42475 1.0077,0.39288 L 19.6992,4.4491 c 1.7993,-0.38572 3.4343,0.95661 3.4343,3.04151 v 0.7854 C 23.1717,8.7048 23.5462,8.9954 23.933,9.1843 l 1.1926,0.4983 c 1.7252,0.8425 2.1563,2.8417 0.8996,4.5197 l -0.357,0.4712 c -0.3202,0.4329 -0.2544,1.0011 0.0643,1.4351 l 0.357,0.4999 c 1.2995,1.5993 0.5668,3.7936 -1.2688,4.5602 l -1.0267,0.4288 c -0.3867,0.1615 -0.5382,0.4387 -0.6105,0.8515 l -0.0714,1.3423 c -0.2499,1.8422 -1.886,2.6742 -3.1987,2.4883 l -1.5637,-0.4177 c -0.3756,-0.0531 -0.8425,0.0714 -1.0924,0.4642 l -0.5641,0.7711 c -1.3994,1.5779 -3.2883,1.3156 -4.2412,0.3927 l -1.0405,-1.2602 c -0.2725,-0.2639 -0.616,-0.4891 -1.0271,-0.334 L 8.81059,26.3261 C 7.51129,26.51 5.98134,25.5112 5.73646,24.222 L 5.55473,22.3562 C 5.48097,21.9679 5.22488,21.6387 4.8666,21.4718 L 3.76259,21.0924 C 2.10242,20.3188 1.54636,18.4458 2.49959,16.8818 L 3.12184,16.0213 C 3.37178,15.6112 3.3599,15.0931 3.09142,14.6949 L 2.62732,14.038 C 1.31357,12.1673 2.22189,10.0764 4.16865,9.4496 L 4.59801,9.3113 C 5.07191,9.1587 5.52968,8.7652 5.56906,8.26888 L 5.66467,7.0641 C 5.81986,5.10853 7.60432,3.9864 9.48122,4.55698 l 0.60748,0.18467 c 0.5854,0.22848 1.0441,0.0339 1.3637,-0.31417 z"
     fill="url(#paint6_radial_18_15087)"
     id="path7"
     style="fill:url(#paint6_radial_18_15087)" />
  <path
     d="m 12.1093,3.58945 c 1.3994,-1.57526 3.3021,-1.32455 4.5196,0 l 0.7425,0.85965 c 0.2571,0.27971 0.6292,0.42475 1.0077,0.39288 L 19.6992,4.4491 c 1.7993,-0.38572 3.4343,0.95661 3.4343,3.04151 v 0.7854 C 23.1717,8.7048 23.5462,8.9954 23.933,9.1843 l 1.1926,0.4983 c 1.7252,0.8425 2.1563,2.8417 0.8996,4.5197 l -0.357,0.4712 c -0.3202,0.4329 -0.2544,1.0011 0.0643,1.4351 l 0.357,0.4999 c 1.2995,1.5993 0.5668,3.7936 -1.2688,4.5602 l -1.0267,0.4288 c -0.3867,0.1615 -0.5382,0.4387 -0.6105,0.8515 l -0.0714,1.3423 c -0.2499,1.8422 -1.886,2.6742 -3.1987,2.4883 l -1.5637,-0.4177 c -0.3756,-0.0531 -0.8425,0.0714 -1.0924,0.4642 l -0.5641,0.7711 c -1.3994,1.5779 -3.2883,1.3156 -4.2412,0.3927 l -1.0405,-1.2602 c -0.2725,-0.2639 -0.616,-0.4891 -1.0271,-0.334 L 8.81059,26.3261 C 7.51129,26.51 5.98134,25.5112 5.73646,24.222 L 5.55473,22.3562 C 5.48097,21.9679 5.22488,21.6387 4.8666,21.4718 L 3.76259,21.0924 C 2.10242,20.3188 1.54636,18.4458 2.49959,16.8818 L 3.12184,16.0213 C 3.37178,15.6112 3.3599,15.0931 3.09142,14.6949 L 2.62732,14.038 C 1.31357,12.1673 2.22189,10.0764 4.16865,9.4496 L 4.59801,9.3113 C 5.07191,9.1587 5.52968,8.7652 5.56906,8.26888 L 5.66467,7.0641 C 5.81986,5.10853 7.60432,3.9864 9.48122,4.55698 l 0.60748,0.18467 c 0.5854,0.22848 1.0441,0.0339 1.3637,-0.31417 z"
     fill="url(#paint7_radial_18_15087)"
     id="path8"
     style="fill:url(#paint7_radial_18_15087)" />
  <path
     d="m 12.1093,3.58945 c 1.3994,-1.57526 3.3021,-1.32455 4.5196,0 l 0.7425,0.85965 c 0.2571,0.27971 0.6292,0.42475 1.0077,0.39288 L 19.6992,4.4491 c 1.7993,-0.38572 3.4343,0.95661 3.4343,3.04151 v 0.7854 C 23.1717,8.7048 23.5462,8.9954 23.933,9.1843 l 1.1926,0.4983 c 1.7252,0.8425 2.1563,2.8417 0.8996,4.5197 l -0.357,0.4712 c -0.3202,0.4329 -0.2544,1.0011 0.0643,1.4351 l 0.357,0.4999 c 1.2995,1.5993 0.5668,3.7936 -1.2688,4.5602 l -1.0267,0.4288 c -0.3867,0.1615 -0.5382,0.4387 -0.6105,0.8515 l -0.0714,1.3423 c -0.2499,1.8422 -1.886,2.6742 -3.1987,2.4883 l -1.5637,-0.4177 c -0.3756,-0.0531 -0.8425,0.0714 -1.0924,0.4642 l -0.5641,0.7711 c -1.3994,1.5779 -3.2883,1.3156 -4.2412,0.3927 l -1.0405,-1.2602 c -0.2725,-0.2639 -0.616,-0.4891 -1.0271,-0.334 L 8.81059,26.3261 C 7.51129,26.51 5.98134,25.5112 5.73646,24.222 L 5.55473,22.3562 C 5.48097,21.9679 5.22488,21.6387 4.8666,21.4718 L 3.76259,21.0924 C 2.10242,20.3188 1.54636,18.4458 2.49959,16.8818 L 3.12184,16.0213 C 3.37178,15.6112 3.3599,15.0931 3.09142,14.6949 L 2.62732,14.038 C 1.31357,12.1673 2.22189,10.0764 4.16865,9.4496 L 4.59801,9.3113 C 5.07191,9.1587 5.52968,8.7652 5.56906,8.26888 L 5.66467,7.0641 C 5.81986,5.10853 7.60432,3.9864 9.48122,4.55698 l 0.60748,0.18467 c 0.5854,0.22848 1.0441,0.0339 1.3637,-0.31417 z"
     fill="url(#paint8_radial_18_15087)"
     id="path9"
     style="fill:url(#paint8_radial_18_15087)" />
  <path
     d="m 12.1093,3.58945 c 1.3994,-1.57526 3.3021,-1.32455 4.5196,0 l 0.7425,0.85965 c 0.2571,0.27971 0.6292,0.42475 1.0077,0.39288 L 19.6992,4.4491 c 1.7993,-0.38572 3.4343,0.95661 3.4343,3.04151 v 0.7854 C 23.1717,8.7048 23.5462,8.9954 23.933,9.1843 l 1.1926,0.4983 c 1.7252,0.8425 2.1563,2.8417 0.8996,4.5197 l -0.357,0.4712 c -0.3202,0.4329 -0.2544,1.0011 0.0643,1.4351 l 0.357,0.4999 c 1.2995,1.5993 0.5668,3.7936 -1.2688,4.5602 l -1.0267,0.4288 c -0.3867,0.1615 -0.5382,0.4387 -0.6105,0.8515 l -0.0714,1.3423 c -0.2499,1.8422 -1.886,2.6742 -3.1987,2.4883 l -1.5637,-0.4177 c -0.3756,-0.0531 -0.8425,0.0714 -1.0924,0.4642 l -0.5641,0.7711 c -1.3994,1.5779 -3.2883,1.3156 -4.2412,0.3927 l -1.0405,-1.2602 c -0.2725,-0.2639 -0.616,-0.4891 -1.0271,-0.334 L 8.81059,26.3261 C 7.51129,26.51 5.98134,25.5112 5.73646,24.222 L 5.55473,22.3562 C 5.48097,21.9679 5.22488,21.6387 4.8666,21.4718 L 3.76259,21.0924 C 2.10242,20.3188 1.54636,18.4458 2.49959,16.8818 L 3.12184,16.0213 C 3.37178,15.6112 3.3599,15.0931 3.09142,14.6949 L 2.62732,14.038 C 1.31357,12.1673 2.22189,10.0764 4.16865,9.4496 L 4.59801,9.3113 C 5.07191,9.1587 5.52968,8.7652 5.56906,8.26888 L 5.66467,7.0641 C 5.81986,5.10853 7.60432,3.9864 9.48122,4.55698 l 0.60748,0.18467 c 0.5854,0.22848 1.0441,0.0339 1.3637,-0.31417 z"
     fill="url(#paint9_radial_18_15087)"
     id="path10"
     style="fill:url(#paint9_radial_18_15087)" />
  <g
     filter="url(#filter0_d_18_15087)"
     id="g13"
     transform="translate(0,-1.5)">
    <path
       d="m 14.3793,26.6609 c 5.4225,0 9.8183,-4.3958 9.8183,-9.8183 0,-5.4225 -4.3958,-9.81825 -9.8183,-9.81825 -5.42248,0 -9.81826,4.39575 -9.81826,9.81825 0,5.4225 4.39578,9.8183 9.81826,9.8183 z"
       fill="url(#paint10_radial_18_15087)"
       id="path11"
       style="fill:url(#paint10_radial_18_15087)" />
    <path
       d="m 14.3793,26.6609 c 5.4225,0 9.8183,-4.3958 9.8183,-9.8183 0,-5.4225 -4.3958,-9.81825 -9.8183,-9.81825 -5.42248,0 -9.81826,4.39575 -9.81826,9.81825 0,5.4225 4.39578,9.8183 9.81826,9.8183 z"
       fill="url(#paint11_radial_18_15087)"
       id="path12"
       style="fill:url(#paint11_radial_18_15087)" />
    <path
       d="m 14.3793,26.6609 c 5.4225,0 9.8183,-4.3958 9.8183,-9.8183 0,-5.4225 -4.3958,-9.81825 -9.8183,-9.81825 -5.42248,0 -9.81826,4.39575 -9.81826,9.81825 0,5.4225 4.39578,9.8183 9.81826,9.8183 z"
       fill="url(#paint12_radial_18_15087)"
       id="path13"
       style="fill:url(#paint12_radial_18_15087)" />
  </g>
  <path
     d="m 16.6909,23.3517 c 1.6739,0 3.0309,-1.357 3.0309,-3.0309 0,-1.674 -1.357,-3.031 -3.0309,-3.031 -1.674,0 -3.031,1.357 -3.031,3.031 0,1.6739 1.357,3.0309 3.031,3.0309 z"
     fill="url(#paint13_radial_18_15087)"
     id="path14"
     style="fill:url(#paint13_radial_18_15087)" />
  <path
     d="m 16.6909,23.3517 c 1.6739,0 3.0309,-1.357 3.0309,-3.0309 0,-1.674 -1.357,-3.031 -3.0309,-3.031 -1.674,0 -3.031,1.357 -3.031,3.031 0,1.6739 1.357,3.0309 3.031,3.0309 z"
     fill="url(#paint14_radial_18_15087)"
     id="path15"
     style="fill:url(#paint14_radial_18_15087)" />
  <g
     filter="url(#filter1_i_18_15087)"
     id="g17"
     transform="translate(0,-1.5)">
    <path
       d="m 27.9671,18.7861 c -2.6686,-2.6009 -6.9384,-2.5558 -9.5394,0.1128 -0.673,0.6863 -1.1629,1.479 -1.4854,2.3255 -0.0609,0.1598 -0.2581,0.2226 -0.4023,0.1309 -0.2125,-0.1351 -0.4368,-0.2539 -0.6682,-0.3516 -0.6164,-0.2856 -1.3005,-0.4435 -2.0221,-0.4435 -2.6837,0 -4.85617,2.1725 -4.85617,4.8561 0,1.1426 0.39841,2.1951 1.05997,3.0295 0.8945,1.1727 2.3002,1.9244 3.8864,1.9244 1.9094,0 7.397,0 9.5394,0 2.1198,0 3.9916,-1.0449 5.1343,-2.6461 2.0447,-2.6761 1.8267,-6.5249 -0.6465,-8.938 z"
       fill="#d5d4da"
       id="path16" />
    <path
       d="m 27.9671,18.7861 c -2.6686,-2.6009 -6.9384,-2.5558 -9.5394,0.1128 -0.673,0.6863 -1.1629,1.479 -1.4854,2.3255 -0.0609,0.1598 -0.2581,0.2226 -0.4023,0.1309 -0.2125,-0.1351 -0.4368,-0.2539 -0.6682,-0.3516 -0.6164,-0.2856 -1.3005,-0.4435 -2.0221,-0.4435 -2.6837,0 -4.85617,2.1725 -4.85617,4.8561 0,1.1426 0.39841,2.1951 1.05997,3.0295 0.8945,1.1727 2.3002,1.9244 3.8864,1.9244 1.9094,0 7.397,0 9.5394,0 2.1198,0 3.9916,-1.0449 5.1343,-2.6461 2.0447,-2.6761 1.8267,-6.5249 -0.6465,-8.938 z"
       fill="url(#paint15_linear_18_15087)"
       id="path17"
       style="fill:url(#paint15_linear_18_15087)" />
  </g>
  <path
     d="m 27.9671,17.2861 c -2.6686,-2.6009 -6.9384,-2.5558 -9.5394,0.1128 -0.673,0.6863 -1.1629,1.479 -1.4854,2.3255 -0.0609,0.1598 -0.2581,0.2226 -0.4023,0.1309 -0.2125,-0.1351 -0.4368,-0.2539 -0.6682,-0.3516 -0.6164,-0.2856 -1.3005,-0.4435 -2.0221,-0.4435 -2.6837,0 -4.85617,2.1725 -4.85617,4.8561 0,1.1426 0.39841,2.1951 1.05997,3.0295 0.8945,1.1727 2.3002,1.9244 3.8864,1.9244 1.9094,0 7.397,0 9.5394,0 2.1198,0 3.9916,-1.0449 5.1343,-2.6461 2.0447,-2.6761 1.8267,-6.5249 -0.6465,-8.938 z"
     fill="url(#paint16_radial_18_15087)"
     id="path18"
     style="fill:url(#paint16_radial_18_15087)" />
  <path
     d="m 27.9671,17.2861 c -2.6686,-2.6009 -6.9384,-2.5558 -9.5394,0.1128 -0.673,0.6863 -1.1629,1.479 -1.4854,2.3255 -0.0609,0.1598 -0.2581,0.2226 -0.4023,0.1309 -0.2125,-0.1351 -0.4368,-0.2539 -0.6682,-0.3516 -0.6164,-0.2856 -1.3005,-0.4435 -2.0221,-0.4435 -2.6837,0 -4.85617,2.1725 -4.85617,4.8561 0,1.1426 0.39841,2.1951 1.05997,3.0295 0.8945,1.1727 2.3002,1.9244 3.8864,1.9244 1.9094,0 7.397,0 9.5394,0 2.1198,0 3.9916,-1.0449 5.1343,-2.6461 2.0447,-2.6761 1.8267,-6.5249 -0.6465,-8.938 z"
     fill="url(#paint17_radial_18_15087)"
     id="path19"
     style="fill:url(#paint17_radial_18_15087)" />
  <path
     d="m 27.9671,17.2861 c -2.6686,-2.6009 -6.9384,-2.5558 -9.5394,0.1128 -0.673,0.6863 -1.1629,1.479 -1.4854,2.3255 -0.0609,0.1598 -0.2581,0.2226 -0.4023,0.1309 -0.2125,-0.1351 -0.4368,-0.2539 -0.6682,-0.3516 -0.6164,-0.2856 -1.3005,-0.4435 -2.0221,-0.4435 -2.6837,0 -4.85617,2.1725 -4.85617,4.8561 0,1.1426 0.39841,2.1951 1.05997,3.0295 0.8945,1.1727 2.3002,1.9244 3.8864,1.9244 1.9094,0 7.397,0 9.5394,0 2.1198,0 3.9916,-1.0449 5.1343,-2.6461 2.0447,-2.6761 1.8267,-6.5249 -0.6465,-8.938 z"
     fill="url(#paint18_radial_18_15087)"
     id="path20"
     style="fill:url(#paint18_radial_18_15087)" />
  <path
     d="m 27.9671,17.2861 c -2.6686,-2.6009 -6.9384,-2.5558 -9.5394,0.1128 -0.673,0.6863 -1.1629,1.479 -1.4854,2.3255 -0.0609,0.1598 -0.2581,0.2226 -0.4023,0.1309 -0.2125,-0.1351 -0.4368,-0.2539 -0.6682,-0.3516 -0.6164,-0.2856 -1.3005,-0.4435 -2.0221,-0.4435 -2.6837,0 -4.85617,2.1725 -4.85617,4.8561 0,1.1426 0.39841,2.1951 1.05997,3.0295 0.8945,1.1727 2.3002,1.9244 3.8864,1.9244 1.9094,0 7.397,0 9.5394,0 2.1198,0 3.9916,-1.0449 5.1343,-2.6461 2.0447,-2.6761 1.8267,-6.5249 -0.6465,-8.938 z"
     fill="url(#paint19_radial_18_15087)"
     id="path21"
     style="fill:url(#paint19_radial_18_15087)" />
  <defs
     id="defs65">
    <filter
       id="filter0_d_18_15087"
       x="3.96104"
       y="7.02435"
       width="20.2365"
       height="20.2365"
       filterUnits="userSpaceOnUse"
       color-interpolation-filters="sRGB">
      <feFlood
         flood-opacity="0"
         result="BackgroundImageFix"
         id="feFlood21" />
      <feColorMatrix
         in="SourceAlpha"
         type="matrix"
         values="0 0 0 0 0 0 0 0 0 0 0 0 0 0 0 0 0 0 127 0"
         result="hardAlpha"
         id="feColorMatrix21" />
      <feOffset
         dx="-0.3"
         dy="0.3"
         id="feOffset21" />
      <feGaussianBlur
         stdDeviation="0.15"
         id="feGaussianBlur21" />
      <feComposite
         in2="hardAlpha"
         operator="out"
         id="feComposite21" />
      <feColorMatrix
         type="matrix"
         values="0 0 0 0 0.921569 0 0 0 0 0.47451 0 0 0 0 0.133333 0 0 0 1 0"
         id="feColorMatrix22" />
      <feBlend
         mode="normal"
         in2="BackgroundImageFix"
         result="effect1_dropShadow_18_15087"
         id="feBlend22" />
      <feBlend
         mode="normal"
         in="SourceGraphic"
         in2="effect1_dropShadow_18_15087"
         result="shape"
         id="feBlend23" />
    </filter>
    <filter
       id="filter1_i_18_15087"
       x="8.99353"
       y="15.866"
       width="21.0065"
       height="14.5042"
       filterUnits="userSpaceOnUse"
       color-interpolation-filters="sRGB">
      <feFlood
         flood-opacity="0"
         result="BackgroundImageFix"
         id="feFlood23" />
      <feBlend
         mode="normal"
         in="SourceGraphic"
         in2="BackgroundImageFix"
         result="shape"
         id="feBlend24" />
      <feColorMatrix
         in="SourceAlpha"
         type="matrix"
         values="0 0 0 0 0 0 0 0 0 0 0 0 0 0 0 0 0 0 127 0"
         result="hardAlpha"
         id="feColorMatrix24" />
      <feOffset
         dy="-1"
         id="feOffset24" />
      <feGaussianBlur
         stdDeviation="1"
         id="feGaussianBlur24" />
      <feComposite
         in2="hardAlpha"
         operator="arithmetic"
         k2="-1"
         k3="1"
         id="feComposite24" />
      <feColorMatrix
         type="matrix"
         values="0 0 0 0 0.815686 0 0 0 0 0.784314 0 0 0 0 0.956863 0 0 0 1 0"
         id="feColorMatrix25" />
      <feBlend
         mode="normal"
         in2="shape"
         result="effect1_innerShadow_18_15087"
         id="feBlend25" />
    </filter>
    <linearGradient
       id="paint0_linear_18_15087"
       x1="22.0048"
       y1="8.32105"
       x2="7.9761"
       y2="26.2198"
       gradientUnits="userSpaceOnUse"
       gradientTransform="translate(0,-1.5)">
      <stop
         stop-color="#FC8B23"
         id="stop25" />
      <stop
         offset="1"
         stop-color="#E67639"
         id="stop26" />
    </linearGradient>
    <radialGradient
       id="paint1_radial_18_15087"
       cx="0"
       cy="0"
       r="1"
       gradientUnits="userSpaceOnUse"
       gradientTransform="matrix(-2.5726182,2.3038245,-2.0326811,-2.2698398,16.7412,3.68666)">
      <stop
         offset="0.300161"
         stop-color="#FFA13A"
         id="stop27" />
      <stop
         offset="1"
         stop-color="#FFA13A"
         stop-opacity="0"
         id="stop28" />
    </radialGradient>
    <radialGradient
       id="paint2_radial_18_15087"
       cx="0"
       cy="0"
       r="1"
       gradientUnits="userSpaceOnUse"
       gradientTransform="matrix(2.0734484,5.0834929,-4.4852154,1.8294237,7.75631,2.59647)">
      <stop
         offset="0.300161"
         stop-color="#FF942A"
         id="stop29" />
      <stop
         offset="1"
         stop-color="#FF942A"
         stop-opacity="0"
         id="stop30" />
    </radialGradient>
    <radialGradient
       id="paint3_radial_18_15087"
       cx="0"
       cy="0"
       r="1"
       gradientUnits="userSpaceOnUse"
       gradientTransform="matrix(-2.1118403,-0.57595173,0.79748175,-2.9241236,22.5008,7.71837)">
      <stop
         offset="0.300161"
         stop-color="#FFA13D"
         id="stop31" />
      <stop
         offset="1"
         stop-color="#FFA13D"
         stop-opacity="0"
         id="stop32" />
    </radialGradient>
    <radialGradient
       id="paint4_radial_18_15087"
       cx="0"
       cy="0"
       r="1"
       gradientUnits="userSpaceOnUse"
       gradientTransform="matrix(-3.4941248,1.6895021,-1.2478195,-2.5806639,26.9165,10.9053)">
      <stop
         offset="0.300161"
         stop-color="#FFA13D"
         id="stop33" />
      <stop
         offset="1"
         stop-color="#FFA13D"
         stop-opacity="0"
         id="stop34" />
    </radialGradient>
    <radialGradient
       id="paint5_radial_18_15087"
       cx="0"
       cy="0"
       r="1"
       gradientUnits="userSpaceOnUse"
       gradientTransform="matrix(-4.3004757,-0.49917939,0.28130503,-2.4234683,27.7612,17.4712)">
      <stop
         offset="0.300161"
         stop-color="#FFA13D"
         id="stop35" />
      <stop
         offset="1"
         stop-color="#FFA13D"
         stop-opacity="0"
         id="stop36" />
    </radialGradient>
    <radialGradient
       id="paint6_radial_18_15087"
       cx="0"
       cy="0"
       r="1"
       gradientUnits="userSpaceOnUse"
       gradientTransform="matrix(2.8266232,-2.7261986,2.6263719,2.7231192,23.8831,22.5013)">
      <stop
         stop-color="#E0762A"
         id="stop37" />
      <stop
         offset="1"
         stop-color="#E0762A"
         stop-opacity="0"
         id="stop38" />
    </radialGradient>
    <radialGradient
       id="paint7_radial_18_15087"
       cx="0"
       cy="0"
       r="1"
       gradientUnits="userSpaceOnUse"
       gradientTransform="matrix(-1.8430718,-2.3806177,2.2934485,-1.7755855,5.68287,21.5797)">
      <stop
         stop-color="#E0762A"
         id="stop39" />
      <stop
         offset="1"
         stop-color="#E0762A"
         stop-opacity="0"
         id="stop40" />
    </radialGradient>
    <radialGradient
       id="paint8_radial_18_15087"
       cx="0"
       cy="0"
       r="1"
       gradientUnits="userSpaceOnUse"
       gradientTransform="matrix(2.7645961,1.3055024,-1.5778852,3.3414073,1.57437,11.4045)">
      <stop
         stop-color="#F0851D"
         id="stop41" />
      <stop
         offset="1"
         stop-color="#F0851D"
         stop-opacity="0"
         id="stop42" />
    </radialGradient>
    <radialGradient
       id="paint9_radial_18_15087"
       cx="0"
       cy="0"
       r="1"
       gradientUnits="userSpaceOnUse"
       gradientTransform="matrix(-2.8274394,-2.17059,2.0477665,-2.6674479,19.8242,26.8616)">
      <stop
         offset="0.336586"
         stop-color="#E3745B"
         id="stop43" />
      <stop
         offset="1"
         stop-color="#E3745B"
         stop-opacity="0"
         id="stop44" />
    </radialGradient>
    <radialGradient
       id="paint10_radial_18_15087"
       cx="0"
       cy="0"
       r="1"
       gradientUnits="userSpaceOnUse"
       gradientTransform="matrix(-8.154543,15.506461,-19.148907,-10.070034,19.951,11.1545)">
      <stop
         offset="0.17178"
         stop-color="#FFD13D"
         id="stop45" />
      <stop
         offset="1"
         stop-color="#DCA21C"
         id="stop46" />
      <stop
         offset="1"
         stop-color="#D89A29"
         id="stop47" />
    </radialGradient>
    <radialGradient
       id="paint11_radial_18_15087"
       cx="0"
       cy="0"
       r="1"
       gradientUnits="userSpaceOnUse"
       gradientTransform="matrix(-4.7248681,-3.8767711,3.2731214,-3.9891618,10.8896,22.4956)">
      <stop
         offset="0.340699"
         stop-color="#DCA225"
         id="stop48" />
      <stop
         offset="1"
         stop-color="#DCA225"
         stop-opacity="0"
         id="stop49" />
    </radialGradient>
    <radialGradient
       id="paint12_radial_18_15087"
       cx="0"
       cy="0"
       r="1"
       gradientUnits="userSpaceOnUse"
       gradientTransform="matrix(-20.4743,4.2403963,-3.5801261,-17.286256,22.3989,15.166)">
      <stop
         offset="0.620449"
         stop-color="#DCA225"
         stop-opacity="0"
         id="stop50" />
      <stop
         offset="1"
         stop-color="#DCA225"
         id="stop51" />
    </radialGradient>
    <radialGradient
       id="paint13_radial_18_15087"
       cx="0"
       cy="0"
       r="1"
       gradientUnits="userSpaceOnUse"
       gradientTransform="matrix(-4.1236923,-0.54560374,0.54560374,-4.1236923,17.7836,19.1962)">
      <stop
         offset="0.308752"
         stop-color="#E8E8E9"
         id="stop52" />
      <stop
         offset="1"
         stop-color="#D2D2D2"
         id="stop53" />
    </radialGradient>
    <radialGradient
       id="paint14_radial_18_15087"
       cx="0"
       cy="0"
       r="1"
       gradientUnits="userSpaceOnUse"
       gradientTransform="matrix(-1.7608754,-1.4136562,1.2952359,-1.613369,17.0148,20.0643)">
      <stop
         stop-color="#CDCDCE"
         id="stop54" />
      <stop
         offset="1"
         stop-color="#CDCDCE"
         stop-opacity="0"
         id="stop55" />
    </radialGradient>
    <linearGradient
       id="paint15_linear_18_15087"
       x1="21.6428"
       y1="29.6441"
       x2="21.6428"
       y2="24.0076"
       gradientUnits="userSpaceOnUse">
      <stop
         stop-color="#DED7FA"
         id="stop56" />
      <stop
         offset="1"
         stop-color="#DED7FA"
         stop-opacity="0"
         id="stop57" />
    </linearGradient>
    <radialGradient
       id="paint16_radial_18_15087"
       cx="0"
       cy="0"
       r="1"
       gradientUnits="userSpaceOnUse"
       gradientTransform="matrix(-6.0700343,5.7602475,-6.1790217,-6.5113303,27.2792,19.9062)">
      <stop
         offset="0.178875"
         stop-color="#FCFBFE"
         id="stop58" />
      <stop
         offset="1"
         stop-color="#FCFBFE"
         stop-opacity="0"
         id="stop59" />
    </radialGradient>
    <radialGradient
       id="paint17_radial_18_15087"
       cx="0"
       cy="0"
       r="1"
       gradientUnits="userSpaceOnUse"
       gradientTransform="matrix(-4.1765905,2.9852964,-3.1281357,-4.3764303,13.9891,23.1148)">
      <stop
         stop-color="#FCFBFE"
         id="stop60" />
      <stop
         offset="1"
         stop-color="#FCFBFE"
         stop-opacity="0"
         id="stop61" />
    </radialGradient>
    <radialGradient
       id="paint18_radial_18_15087"
       cx="0"
       cy="0"
       r="1"
       gradientUnits="userSpaceOnUse"
       gradientTransform="matrix(-17.415423,4.1315976,-3.2537704,-13.715224,26.4089,21.7178)">
      <stop
         offset="0.815422"
         stop-color="#CECCD7"
         stop-opacity="0"
         id="stop62" />
      <stop
         offset="1"
         stop-color="#CECCD7"
         id="stop63" />
    </radialGradient>
    <radialGradient
       id="paint19_radial_18_15087"
       cx="0"
       cy="0"
       r="1"
       gradientUnits="userSpaceOnUse"
       gradientTransform="matrix(3.3200604,-3.5342566,4.8773703,4.5817738,11.7276,29.634)">
      <stop
         stop-color="#D0C9EE"
         id="stop64" />
      <stop
         offset="1"
         stop-color="#D0C9EE"
         stop-opacity="0"
         id="stop65" />
    </radialGradient>
  </defs>
</svg>
