<?xml version="1.0" encoding="UTF-8" standalone="no"?>
<svg
   width="32"
   height="32"
   viewBox="0 0 32 32"
   fill="none"
   version="1.1"
   id="svg72"
   sodipodi:docname="sun_behind_large_cloud_color.svg"
   inkscape:version="1.3.2 (091e20e, 2023-11-25, custom)"
   xmlns:inkscape="http://www.inkscape.org/namespaces/inkscape"
   xmlns:sodipodi="http://sodipodi.sourceforge.net/DTD/sodipodi-0.dtd"
   xmlns="http://www.w3.org/2000/svg"
   xmlns:svg="http://www.w3.org/2000/svg">
  <sodipodi:namedview
     id="namedview72"
     pagecolor="#ffffff"
     bordercolor="#000000"
     borderopacity="0.25"
     inkscape:showpageshadow="2"
     inkscape:pageopacity="0.0"
     inkscape:pagecheckerboard="0"
     inkscape:deskcolor="#d1d1d1"
     inkscape:zoom="34.34375"
     inkscape:cx="16"
     inkscape:cy="16"
     inkscape:window-width="2560"
     inkscape:window-height="1334"
     inkscape:window-x="-11"
     inkscape:window-y="-11"
     inkscape:window-maximized="1"
     inkscape:current-layer="svg72" />
  <path
     d="m 8.74624,5.32822 c 0.83976,-0.94527 1.98156,-0.79482 2.71206,0 l 0.4456,0.51584 c 0.1543,0.16785 0.3775,0.25488 0.6047,0.23575 l 0.7921,-0.23575 c 1.0797,-0.23145 2.0608,0.57403 2.0608,1.82511 v 0.4713 c 0.0229,0.25727 0.2477,0.43163 0.4797,0.54503 l 0.7157,0.299 c 1.0352,0.5056 1.2939,1.7053 0.5399,2.7121 l -0.2143,0.2828 c -0.1921,0.2598 -0.1526,0.6007 0.0386,0.8612 l 0.2142,0.2999 c 0.7798,0.9597 0.3401,2.2764 -0.7613,2.7365 l -0.6161,0.2573 c -0.2321,0.0969 -0.323,0.2632 -0.3664,0.5109 l -0.0428,0.8055 c -0.15,1.1054 -1.1318,1.6047 -1.9195,1.4932 l -0.9383,-0.2507 c -0.2254,-0.0319 -0.5056,0.0429 -0.6555,0.2785 l -0.3385,0.4627 c -0.8398,0.9469 -1.97319,0.7895 -2.545,0.2357 L 8.3275,18.9139 C 8.16401,18.7555 7.95789,18.6204 7.71119,18.7135 L 6.7668,18.9717 C 5.98713,19.0821 5.06905,18.4827 4.92211,17.7091 L 4.81306,16.5895 C 4.7688,16.3565 4.61513,16.159 4.40013,16.0588 L 3.73765,15.8312 C 2.74144,15.3669 2.40777,14.243 2.97977,13.3045 l 0.37339,-0.5163 c 0.14998,-0.2461 0.14285,-0.557 -0.01825,-0.796 L 3.05641,11.5981 C 2.26808,10.4755 2.81313,9.2208 3.98132,8.8447 L 4.23897,8.7617 C 4.52334,8.6702 4.79802,8.434 4.82166,8.13619 L 4.87903,7.41324 C 4.97216,6.23976 6.04295,5.56641 7.16922,5.9088 l 0.3645,0.11081 c 0.35133,0.1371 0.62659,0.02034 0.81835,-0.18852 z"
     fill="url(#paint0_linear_18_15105)"
     id="path1"
     style="fill:url(#paint0_linear_18_15105)" />
  <path
     d="m 8.74624,5.32822 c 0.83976,-0.94527 1.98156,-0.79482 2.71206,0 l 0.4456,0.51584 c 0.1543,0.16785 0.3775,0.25488 0.6047,0.23575 l 0.7921,-0.23575 c 1.0797,-0.23145 2.0608,0.57403 2.0608,1.82511 v 0.4713 c 0.0229,0.25727 0.2477,0.43163 0.4797,0.54503 l 0.7157,0.299 c 1.0352,0.5056 1.2939,1.7053 0.5399,2.7121 l -0.2143,0.2828 c -0.1921,0.2598 -0.1526,0.6007 0.0386,0.8612 l 0.2142,0.2999 c 0.7798,0.9597 0.3401,2.2764 -0.7613,2.7365 l -0.6161,0.2573 c -0.2321,0.0969 -0.323,0.2632 -0.3664,0.5109 l -0.0428,0.8055 c -0.15,1.1054 -1.1318,1.6047 -1.9195,1.4932 l -0.9383,-0.2507 c -0.2254,-0.0319 -0.5056,0.0429 -0.6555,0.2785 l -0.3385,0.4627 c -0.8398,0.9469 -1.97319,0.7895 -2.545,0.2357 L 8.3275,18.9139 C 8.16401,18.7555 7.95789,18.6204 7.71119,18.7135 L 6.7668,18.9717 C 5.98713,19.0821 5.06905,18.4827 4.92211,17.7091 L 4.81306,16.5895 C 4.7688,16.3565 4.61513,16.159 4.40013,16.0588 L 3.73765,15.8312 C 2.74144,15.3669 2.40777,14.243 2.97977,13.3045 l 0.37339,-0.5163 c 0.14998,-0.2461 0.14285,-0.557 -0.01825,-0.796 L 3.05641,11.5981 C 2.26808,10.4755 2.81313,9.2208 3.98132,8.8447 L 4.23897,8.7617 C 4.52334,8.6702 4.79802,8.434 4.82166,8.13619 L 4.87903,7.41324 C 4.97216,6.23976 6.04295,5.56641 7.16922,5.9088 l 0.3645,0.11081 c 0.35133,0.1371 0.62659,0.02034 0.81835,-0.18852 z"
     fill="url(#paint1_radial_18_15105)"
     id="path2"
     style="fill:url(#paint1_radial_18_15105)" />
  <path
     d="m 8.74624,5.32822 c 0.83976,-0.94527 1.98156,-0.79482 2.71206,0 l 0.4456,0.51584 c 0.1543,0.16785 0.3775,0.25488 0.6047,0.23575 l 0.7921,-0.23575 c 1.0797,-0.23145 2.0608,0.57403 2.0608,1.82511 v 0.4713 c 0.0229,0.25727 0.2477,0.43163 0.4797,0.54503 l 0.7157,0.299 c 1.0352,0.5056 1.2939,1.7053 0.5399,2.7121 l -0.2143,0.2828 c -0.1921,0.2598 -0.1526,0.6007 0.0386,0.8612 l 0.2142,0.2999 c 0.7798,0.9597 0.3401,2.2764 -0.7613,2.7365 l -0.6161,0.2573 c -0.2321,0.0969 -0.323,0.2632 -0.3664,0.5109 l -0.0428,0.8055 c -0.15,1.1054 -1.1318,1.6047 -1.9195,1.4932 l -0.9383,-0.2507 c -0.2254,-0.0319 -0.5056,0.0429 -0.6555,0.2785 l -0.3385,0.4627 c -0.8398,0.9469 -1.97319,0.7895 -2.545,0.2357 L 8.3275,18.9139 C 8.16401,18.7555 7.95789,18.6204 7.71119,18.7135 L 6.7668,18.9717 C 5.98713,19.0821 5.06905,18.4827 4.92211,17.7091 L 4.81306,16.5895 C 4.7688,16.3565 4.61513,16.159 4.40013,16.0588 L 3.73765,15.8312 C 2.74144,15.3669 2.40777,14.243 2.97977,13.3045 l 0.37339,-0.5163 c 0.14998,-0.2461 0.14285,-0.557 -0.01825,-0.796 L 3.05641,11.5981 C 2.26808,10.4755 2.81313,9.2208 3.98132,8.8447 L 4.23897,8.7617 C 4.52334,8.6702 4.79802,8.434 4.82166,8.13619 L 4.87903,7.41324 C 4.97216,6.23976 6.04295,5.56641 7.16922,5.9088 l 0.3645,0.11081 c 0.35133,0.1371 0.62659,0.02034 0.81835,-0.18852 z"
     fill="url(#paint2_radial_18_15105)"
     id="path3"
     style="fill:url(#paint2_radial_18_15105)" />
  <path
     d="m 8.74624,5.32822 c 0.83976,-0.94527 1.98156,-0.79482 2.71206,0 l 0.4456,0.51584 c 0.1543,0.16785 0.3775,0.25488 0.6047,0.23575 l 0.7921,-0.23575 c 1.0797,-0.23145 2.0608,0.57403 2.0608,1.82511 v 0.4713 c 0.0229,0.25727 0.2477,0.43163 0.4797,0.54503 l 0.7157,0.299 c 1.0352,0.5056 1.2939,1.7053 0.5399,2.7121 l -0.2143,0.2828 c -0.1921,0.2598 -0.1526,0.6007 0.0386,0.8612 l 0.2142,0.2999 c 0.7798,0.9597 0.3401,2.2764 -0.7613,2.7365 l -0.6161,0.2573 c -0.2321,0.0969 -0.323,0.2632 -0.3664,0.5109 l -0.0428,0.8055 c -0.15,1.1054 -1.1318,1.6047 -1.9195,1.4932 l -0.9383,-0.2507 c -0.2254,-0.0319 -0.5056,0.0429 -0.6555,0.2785 l -0.3385,0.4627 c -0.8398,0.9469 -1.97319,0.7895 -2.545,0.2357 L 8.3275,18.9139 C 8.16401,18.7555 7.95789,18.6204 7.71119,18.7135 L 6.7668,18.9717 C 5.98713,19.0821 5.06905,18.4827 4.92211,17.7091 L 4.81306,16.5895 C 4.7688,16.3565 4.61513,16.159 4.40013,16.0588 L 3.73765,15.8312 C 2.74144,15.3669 2.40777,14.243 2.97977,13.3045 l 0.37339,-0.5163 c 0.14998,-0.2461 0.14285,-0.557 -0.01825,-0.796 L 3.05641,11.5981 C 2.26808,10.4755 2.81313,9.2208 3.98132,8.8447 L 4.23897,8.7617 C 4.52334,8.6702 4.79802,8.434 4.82166,8.13619 L 4.87903,7.41324 C 4.97216,6.23976 6.04295,5.56641 7.16922,5.9088 l 0.3645,0.11081 c 0.35133,0.1371 0.62659,0.02034 0.81835,-0.18852 z"
     fill="url(#paint3_radial_18_15105)"
     id="path4"
     style="fill:url(#paint3_radial_18_15105)" />
  <path
     d="m 8.74624,5.32822 c 0.83976,-0.94527 1.98156,-0.79482 2.71206,0 l 0.4456,0.51584 c 0.1543,0.16785 0.3775,0.25488 0.6047,0.23575 l 0.7921,-0.23575 c 1.0797,-0.23145 2.0608,0.57403 2.0608,1.82511 v 0.4713 c 0.0229,0.25727 0.2477,0.43163 0.4797,0.54503 l 0.7157,0.299 c 1.0352,0.5056 1.2939,1.7053 0.5399,2.7121 l -0.2143,0.2828 c -0.1921,0.2598 -0.1526,0.6007 0.0386,0.8612 l 0.2142,0.2999 c 0.7798,0.9597 0.3401,2.2764 -0.7613,2.7365 l -0.6161,0.2573 c -0.2321,0.0969 -0.323,0.2632 -0.3664,0.5109 l -0.0428,0.8055 c -0.15,1.1054 -1.1318,1.6047 -1.9195,1.4932 l -0.9383,-0.2507 c -0.2254,-0.0319 -0.5056,0.0429 -0.6555,0.2785 l -0.3385,0.4627 c -0.8398,0.9469 -1.97319,0.7895 -2.545,0.2357 L 8.3275,18.9139 C 8.16401,18.7555 7.95789,18.6204 7.71119,18.7135 L 6.7668,18.9717 C 5.98713,19.0821 5.06905,18.4827 4.92211,17.7091 L 4.81306,16.5895 C 4.7688,16.3565 4.61513,16.159 4.40013,16.0588 L 3.73765,15.8312 C 2.74144,15.3669 2.40777,14.243 2.97977,13.3045 l 0.37339,-0.5163 c 0.14998,-0.2461 0.14285,-0.557 -0.01825,-0.796 L 3.05641,11.5981 C 2.26808,10.4755 2.81313,9.2208 3.98132,8.8447 L 4.23897,8.7617 C 4.52334,8.6702 4.79802,8.434 4.82166,8.13619 L 4.87903,7.41324 C 4.97216,6.23976 6.04295,5.56641 7.16922,5.9088 l 0.3645,0.11081 c 0.35133,0.1371 0.62659,0.02034 0.81835,-0.18852 z"
     fill="url(#paint4_radial_18_15105)"
     id="path5"
     style="fill:url(#paint4_radial_18_15105)" />
  <path
     d="m 8.74624,5.32822 c 0.83976,-0.94527 1.98156,-0.79482 2.71206,0 l 0.4456,0.51584 c 0.1543,0.16785 0.3775,0.25488 0.6047,0.23575 l 0.7921,-0.23575 c 1.0797,-0.23145 2.0608,0.57403 2.0608,1.82511 v 0.4713 c 0.0229,0.25727 0.2477,0.43163 0.4797,0.54503 l 0.7157,0.299 c 1.0352,0.5056 1.2939,1.7053 0.5399,2.7121 l -0.2143,0.2828 c -0.1921,0.2598 -0.1526,0.6007 0.0386,0.8612 l 0.2142,0.2999 c 0.7798,0.9597 0.3401,2.2764 -0.7613,2.7365 l -0.6161,0.2573 c -0.2321,0.0969 -0.323,0.2632 -0.3664,0.5109 l -0.0428,0.8055 c -0.15,1.1054 -1.1318,1.6047 -1.9195,1.4932 l -0.9383,-0.2507 c -0.2254,-0.0319 -0.5056,0.0429 -0.6555,0.2785 l -0.3385,0.4627 c -0.8398,0.9469 -1.97319,0.7895 -2.545,0.2357 L 8.3275,18.9139 C 8.16401,18.7555 7.95789,18.6204 7.71119,18.7135 L 6.7668,18.9717 C 5.98713,19.0821 5.06905,18.4827 4.92211,17.7091 L 4.81306,16.5895 C 4.7688,16.3565 4.61513,16.159 4.40013,16.0588 L 3.73765,15.8312 C 2.74144,15.3669 2.40777,14.243 2.97977,13.3045 l 0.37339,-0.5163 c 0.14998,-0.2461 0.14285,-0.557 -0.01825,-0.796 L 3.05641,11.5981 C 2.26808,10.4755 2.81313,9.2208 3.98132,8.8447 L 4.23897,8.7617 C 4.52334,8.6702 4.79802,8.434 4.82166,8.13619 L 4.87903,7.41324 C 4.97216,6.23976 6.04295,5.56641 7.16922,5.9088 l 0.3645,0.11081 c 0.35133,0.1371 0.62659,0.02034 0.81835,-0.18852 z"
     fill="url(#paint5_radial_18_15105)"
     id="path6"
     style="fill:url(#paint5_radial_18_15105)" />
  <path
     d="m 8.74624,5.32822 c 0.83976,-0.94527 1.98156,-0.79482 2.71206,0 l 0.4456,0.51584 c 0.1543,0.16785 0.3775,0.25488 0.6047,0.23575 l 0.7921,-0.23575 c 1.0797,-0.23145 2.0608,0.57403 2.0608,1.82511 v 0.4713 c 0.0229,0.25727 0.2477,0.43163 0.4797,0.54503 l 0.7157,0.299 c 1.0352,0.5056 1.2939,1.7053 0.5399,2.7121 l -0.2143,0.2828 c -0.1921,0.2598 -0.1526,0.6007 0.0386,0.8612 l 0.2142,0.2999 c 0.7798,0.9597 0.3401,2.2764 -0.7613,2.7365 l -0.6161,0.2573 c -0.2321,0.0969 -0.323,0.2632 -0.3664,0.5109 l -0.0428,0.8055 c -0.15,1.1054 -1.1318,1.6047 -1.9195,1.4932 l -0.9383,-0.2507 c -0.2254,-0.0319 -0.5056,0.0429 -0.6555,0.2785 l -0.3385,0.4627 c -0.8398,0.9469 -1.97319,0.7895 -2.545,0.2357 L 8.3275,18.9139 C 8.16401,18.7555 7.95789,18.6204 7.71119,18.7135 L 6.7668,18.9717 C 5.98713,19.0821 5.06905,18.4827 4.92211,17.7091 L 4.81306,16.5895 C 4.7688,16.3565 4.61513,16.159 4.40013,16.0588 L 3.73765,15.8312 C 2.74144,15.3669 2.40777,14.243 2.97977,13.3045 l 0.37339,-0.5163 c 0.14998,-0.2461 0.14285,-0.557 -0.01825,-0.796 L 3.05641,11.5981 C 2.26808,10.4755 2.81313,9.2208 3.98132,8.8447 L 4.23897,8.7617 C 4.52334,8.6702 4.79802,8.434 4.82166,8.13619 L 4.87903,7.41324 C 4.97216,6.23976 6.04295,5.56641 7.16922,5.9088 l 0.3645,0.11081 c 0.35133,0.1371 0.62659,0.02034 0.81835,-0.18852 z"
     fill="url(#paint6_radial_18_15105)"
     id="path7"
     style="fill:url(#paint6_radial_18_15105)" />
  <path
     d="m 8.74624,5.32822 c 0.83976,-0.94527 1.98156,-0.79482 2.71206,0 l 0.4456,0.51584 c 0.1543,0.16785 0.3775,0.25488 0.6047,0.23575 l 0.7921,-0.23575 c 1.0797,-0.23145 2.0608,0.57403 2.0608,1.82511 v 0.4713 c 0.0229,0.25727 0.2477,0.43163 0.4797,0.54503 l 0.7157,0.299 c 1.0352,0.5056 1.2939,1.7053 0.5399,2.7121 l -0.2143,0.2828 c -0.1921,0.2598 -0.1526,0.6007 0.0386,0.8612 l 0.2142,0.2999 c 0.7798,0.9597 0.3401,2.2764 -0.7613,2.7365 l -0.6161,0.2573 c -0.2321,0.0969 -0.323,0.2632 -0.3664,0.5109 l -0.0428,0.8055 c -0.15,1.1054 -1.1318,1.6047 -1.9195,1.4932 l -0.9383,-0.2507 c -0.2254,-0.0319 -0.5056,0.0429 -0.6555,0.2785 l -0.3385,0.4627 c -0.8398,0.9469 -1.97319,0.7895 -2.545,0.2357 L 8.3275,18.9139 C 8.16401,18.7555 7.95789,18.6204 7.71119,18.7135 L 6.7668,18.9717 C 5.98713,19.0821 5.06905,18.4827 4.92211,17.7091 L 4.81306,16.5895 C 4.7688,16.3565 4.61513,16.159 4.40013,16.0588 L 3.73765,15.8312 C 2.74144,15.3669 2.40777,14.243 2.97977,13.3045 l 0.37339,-0.5163 c 0.14998,-0.2461 0.14285,-0.557 -0.01825,-0.796 L 3.05641,11.5981 C 2.26808,10.4755 2.81313,9.2208 3.98132,8.8447 L 4.23897,8.7617 C 4.52334,8.6702 4.79802,8.434 4.82166,8.13619 L 4.87903,7.41324 C 4.97216,6.23976 6.04295,5.56641 7.16922,5.9088 l 0.3645,0.11081 c 0.35133,0.1371 0.62659,0.02034 0.81835,-0.18852 z"
     fill="url(#paint7_radial_18_15105)"
     id="path8"
     style="fill:url(#paint7_radial_18_15105)" />
  <path
     d="m 8.74624,5.32822 c 0.83976,-0.94527 1.98156,-0.79482 2.71206,0 l 0.4456,0.51584 c 0.1543,0.16785 0.3775,0.25488 0.6047,0.23575 l 0.7921,-0.23575 c 1.0797,-0.23145 2.0608,0.57403 2.0608,1.82511 v 0.4713 c 0.0229,0.25727 0.2477,0.43163 0.4797,0.54503 l 0.7157,0.299 c 1.0352,0.5056 1.2939,1.7053 0.5399,2.7121 l -0.2143,0.2828 c -0.1921,0.2598 -0.1526,0.6007 0.0386,0.8612 l 0.2142,0.2999 c 0.7798,0.9597 0.3401,2.2764 -0.7613,2.7365 l -0.6161,0.2573 c -0.2321,0.0969 -0.323,0.2632 -0.3664,0.5109 l -0.0428,0.8055 c -0.15,1.1054 -1.1318,1.6047 -1.9195,1.4932 l -0.9383,-0.2507 c -0.2254,-0.0319 -0.5056,0.0429 -0.6555,0.2785 l -0.3385,0.4627 c -0.8398,0.9469 -1.97319,0.7895 -2.545,0.2357 L 8.3275,18.9139 C 8.16401,18.7555 7.95789,18.6204 7.71119,18.7135 L 6.7668,18.9717 C 5.98713,19.0821 5.06905,18.4827 4.92211,17.7091 L 4.81306,16.5895 C 4.7688,16.3565 4.61513,16.159 4.40013,16.0588 L 3.73765,15.8312 C 2.74144,15.3669 2.40777,14.243 2.97977,13.3045 l 0.37339,-0.5163 c 0.14998,-0.2461 0.14285,-0.557 -0.01825,-0.796 L 3.05641,11.5981 C 2.26808,10.4755 2.81313,9.2208 3.98132,8.8447 L 4.23897,8.7617 C 4.52334,8.6702 4.79802,8.434 4.82166,8.13619 L 4.87903,7.41324 C 4.97216,6.23976 6.04295,5.56641 7.16922,5.9088 l 0.3645,0.11081 c 0.35133,0.1371 0.62659,0.02034 0.81835,-0.18852 z"
     fill="url(#paint8_radial_18_15105)"
     id="path9"
     style="fill:url(#paint8_radial_18_15105)" />
  <path
     d="m 8.74624,5.32822 c 0.83976,-0.94527 1.98156,-0.79482 2.71206,0 l 0.4456,0.51584 c 0.1543,0.16785 0.3775,0.25488 0.6047,0.23575 l 0.7921,-0.23575 c 1.0797,-0.23145 2.0608,0.57403 2.0608,1.82511 v 0.4713 c 0.0229,0.25727 0.2477,0.43163 0.4797,0.54503 l 0.7157,0.299 c 1.0352,0.5056 1.2939,1.7053 0.5399,2.7121 l -0.2143,0.2828 c -0.1921,0.2598 -0.1526,0.6007 0.0386,0.8612 l 0.2142,0.2999 c 0.7798,0.9597 0.3401,2.2764 -0.7613,2.7365 l -0.6161,0.2573 c -0.2321,0.0969 -0.323,0.2632 -0.3664,0.5109 l -0.0428,0.8055 c -0.15,1.1054 -1.1318,1.6047 -1.9195,1.4932 l -0.9383,-0.2507 c -0.2254,-0.0319 -0.5056,0.0429 -0.6555,0.2785 l -0.3385,0.4627 c -0.8398,0.9469 -1.97319,0.7895 -2.545,0.2357 L 8.3275,18.9139 C 8.16401,18.7555 7.95789,18.6204 7.71119,18.7135 L 6.7668,18.9717 C 5.98713,19.0821 5.06905,18.4827 4.92211,17.7091 L 4.81306,16.5895 C 4.7688,16.3565 4.61513,16.159 4.40013,16.0588 L 3.73765,15.8312 C 2.74144,15.3669 2.40777,14.243 2.97977,13.3045 l 0.37339,-0.5163 c 0.14998,-0.2461 0.14285,-0.557 -0.01825,-0.796 L 3.05641,11.5981 C 2.26808,10.4755 2.81313,9.2208 3.98132,8.8447 L 4.23897,8.7617 C 4.52334,8.6702 4.79802,8.434 4.82166,8.13619 L 4.87903,7.41324 C 4.97216,6.23976 6.04295,5.56641 7.16922,5.9088 l 0.3645,0.11081 c 0.35133,0.1371 0.62659,0.02034 0.81835,-0.18852 z"
     fill="url(#paint9_radial_18_15105)"
     id="path10"
     style="fill:url(#paint9_radial_18_15105)" />
  <g
     filter="url(#filter0_d_18_15105)"
     id="g13"
     transform="translate(0,-1.5)">
    <path
       d="m 10.1084,19.7726 c 3.2539,0 5.8916,-2.6378 5.8916,-5.8917 0,-3.2538 -2.6377,-5.89158 -5.8916,-5.89158 -3.25384,0 -5.8916,2.63778 -5.8916,5.89158 0,3.2539 2.63776,5.8917 5.8916,5.8917 z"
       fill="url(#paint10_radial_18_15105)"
       id="path11"
       style="fill:url(#paint10_radial_18_15105)" />
    <path
       d="m 10.1084,19.7726 c 3.2539,0 5.8916,-2.6378 5.8916,-5.8917 0,-3.2538 -2.6377,-5.89158 -5.8916,-5.89158 -3.25384,0 -5.8916,2.63778 -5.8916,5.89158 0,3.2539 2.63776,5.8917 5.8916,5.8917 z"
       fill="url(#paint11_radial_18_15105)"
       id="path12"
       style="fill:url(#paint11_radial_18_15105)" />
    <path
       d="m 10.1084,19.7726 c 3.2539,0 5.8916,-2.6378 5.8916,-5.8917 0,-3.2538 -2.6377,-5.89158 -5.8916,-5.89158 -3.25384,0 -5.8916,2.63778 -5.8916,5.89158 0,3.2539 2.63776,5.8917 5.8916,5.8917 z"
       fill="url(#paint12_radial_18_15105)"
       id="path13"
       style="fill:url(#paint12_radial_18_15105)" />
  </g>
  <path
     d="m 14.4844,22.8884 c 4.0638,0 7.3581,-3.2944 7.3581,-7.3581 0,-4.0638 -3.2943,-7.35812 -7.3581,-7.35812 -4.0637,0 -7.35806,3.29432 -7.35806,7.35812 0,4.0637 3.29436,7.3581 7.35806,7.3581 z"
     fill="url(#paint13_radial_18_15105)"
     id="path14"
     style="fill:url(#paint13_radial_18_15105)" />
  <path
     d="m 14.4844,22.8884 c 4.0638,0 7.3581,-3.2944 7.3581,-7.3581 0,-4.0638 -3.2943,-7.35812 -7.3581,-7.35812 -4.0637,0 -7.35806,3.29432 -7.35806,7.35812 0,4.0637 3.29436,7.3581 7.35806,7.3581 z"
     fill="url(#paint14_radial_18_15105)"
     id="path15"
     style="fill:url(#paint14_radial_18_15105)" />
  <g
     filter="url(#filter1_i_18_15105)"
     id="g18"
     transform="translate(0,-1.5)">
    <path
       d="m 27.2173,14.6592 c -3.5341,-3.4444 -9.1886,-3.3847 -12.6331,0.1494 -0.9192,0.9373 -1.5805,2.0245 -2.0066,3.1854 -0.059,0.1604 -0.256,0.2232 -0.3986,0.1289 -0.3091,-0.2044 -0.6386,-0.383 -0.9795,-0.5269 -0.8164,-0.3783 -1.72228,-0.5874 -2.67797,-0.5874 -3.55398,0 -6.43101,2.877 -6.43101,6.431 0,1.5132 0.52761,2.9069 1.40366,4.0119 C 4.67884,29.0045 6.54046,30 8.64099,30 c 2.52861,0 9.79581,0 12.63311,0 2.8073,0 5.2861,-1.3838 6.7993,-3.5042 2.7078,-3.544 2.4191,-8.641 -0.8561,-11.8366 z"
       fill="url(#paint15_linear_18_15105)"
       id="path16"
       style="fill:url(#paint15_linear_18_15105)" />
    <path
       d="m 27.2173,14.6592 c -3.5341,-3.4444 -9.1886,-3.3847 -12.6331,0.1494 -0.9192,0.9373 -1.5805,2.0245 -2.0066,3.1854 -0.059,0.1604 -0.256,0.2232 -0.3986,0.1289 -0.3091,-0.2044 -0.6386,-0.383 -0.9795,-0.5269 -0.8164,-0.3783 -1.72228,-0.5874 -2.67797,-0.5874 -3.55398,0 -6.43101,2.877 -6.43101,6.431 0,1.5132 0.52761,2.9069 1.40366,4.0119 C 4.67884,29.0045 6.54046,30 8.64099,30 c 2.52861,0 9.79581,0 12.63311,0 2.8073,0 5.2861,-1.3838 6.7993,-3.5042 2.7078,-3.544 2.4191,-8.641 -0.8561,-11.8366 z"
       fill="url(#paint16_linear_18_15105)"
       id="path17"
       style="fill:url(#paint16_linear_18_15105)" />
    <path
       d="m 27.2173,14.6592 c -3.5341,-3.4444 -9.1886,-3.3847 -12.6331,0.1494 -0.9192,0.9373 -1.5805,2.0245 -2.0066,3.1854 -0.059,0.1604 -0.256,0.2232 -0.3986,0.1289 -0.3091,-0.2044 -0.6386,-0.383 -0.9795,-0.5269 -0.8164,-0.3783 -1.72228,-0.5874 -2.67797,-0.5874 -3.55398,0 -6.43101,2.877 -6.43101,6.431 0,1.5132 0.52761,2.9069 1.40366,4.0119 C 4.67884,29.0045 6.54046,30 8.64099,30 c 2.52861,0 9.79581,0 12.63311,0 2.8073,0 5.2861,-1.3838 6.7993,-3.5042 2.7078,-3.544 2.4191,-8.641 -0.8561,-11.8366 z"
       fill="url(#paint17_radial_18_15105)"
       id="path18"
       style="fill:url(#paint17_radial_18_15105)" />
  </g>
  <path
     d="m 27.2173,13.1592 c -3.5341,-3.4444 -9.1886,-3.3847 -12.6331,0.1494 -0.9192,0.9373 -1.5805,2.0245 -2.0066,3.1854 -0.059,0.1604 -0.256,0.2232 -0.3986,0.1289 -0.3091,-0.2044 -0.6386,-0.383 -0.9795,-0.5269 -0.8164,-0.3783 -1.72228,-0.5874 -2.67797,-0.5874 -3.55398,0 -6.43101,2.877 -6.43101,6.431 0,1.5132 0.52761,2.9069 1.40366,4.0119 1.18466,1.553 3.04628,2.5485 5.14681,2.5485 2.52861,0 9.79581,0 12.63311,0 2.8073,0 5.2861,-1.3838 6.7993,-3.5042 2.7078,-3.544 2.4191,-8.641 -0.8561,-11.8366 z"
     fill="url(#paint18_radial_18_15105)"
     id="path19"
     style="fill:url(#paint18_radial_18_15105)" />
  <path
     d="m 27.2173,13.1592 c -3.5341,-3.4444 -9.1886,-3.3847 -12.6331,0.1494 -0.9192,0.9373 -1.5805,2.0245 -2.0066,3.1854 -0.059,0.1604 -0.256,0.2232 -0.3986,0.1289 -0.3091,-0.2044 -0.6386,-0.383 -0.9795,-0.5269 -0.8164,-0.3783 -1.72228,-0.5874 -2.67797,-0.5874 -3.55398,0 -6.43101,2.877 -6.43101,6.431 0,1.5132 0.52761,2.9069 1.40366,4.0119 1.18466,1.553 3.04628,2.5485 5.14681,2.5485 2.52861,0 9.79581,0 12.63311,0 2.8073,0 5.2861,-1.3838 6.7993,-3.5042 2.7078,-3.544 2.4191,-8.641 -0.8561,-11.8366 z"
     fill="url(#paint19_radial_18_15105)"
     id="path20"
     style="fill:url(#paint19_radial_18_15105)" />
  <path
     d="m 27.2173,13.1592 c -3.5341,-3.4444 -9.1886,-3.3847 -12.6331,0.1494 -0.9192,0.9373 -1.5805,2.0245 -2.0066,3.1854 -0.059,0.1604 -0.256,0.2232 -0.3986,0.1289 -0.3091,-0.2044 -0.6386,-0.383 -0.9795,-0.5269 -0.8164,-0.3783 -1.72228,-0.5874 -2.67797,-0.5874 -3.55398,0 -6.43101,2.877 -6.43101,6.431 0,1.5132 0.52761,2.9069 1.40366,4.0119 1.18466,1.553 3.04628,2.5485 5.14681,2.5485 2.52861,0 9.79581,0 12.63311,0 2.8073,0 5.2861,-1.3838 6.7993,-3.5042 2.7078,-3.544 2.4191,-8.641 -0.8561,-11.8366 z"
     fill="url(#paint20_radial_18_15105)"
     id="path21"
     style="fill:url(#paint20_radial_18_15105)" />
  <path
     d="m 27.2173,13.1592 c -3.5341,-3.4444 -9.1886,-3.3847 -12.6331,0.1494 -0.9192,0.9373 -1.5805,2.0245 -2.0066,3.1854 -0.059,0.1604 -0.256,0.2232 -0.3986,0.1289 -0.3091,-0.2044 -0.6386,-0.383 -0.9795,-0.5269 -0.8164,-0.3783 -1.72228,-0.5874 -2.67797,-0.5874 -3.55398,0 -6.43101,2.877 -6.43101,6.431 0,1.5132 0.52761,2.9069 1.40366,4.0119 1.18466,1.553 3.04628,2.5485 5.14681,2.5485 2.52861,0 9.79581,0 12.63311,0 2.8073,0 5.2861,-1.3838 6.7993,-3.5042 2.7078,-3.544 2.4191,-8.641 -0.8561,-11.8366 z"
     fill="url(#paint21_radial_18_15105)"
     id="path22"
     style="fill:url(#paint21_radial_18_15105)" />
  <g
     filter="url(#filter2_f_18_15105)"
     id="g23"
     transform="translate(0,-1.5)">
    <path
       d="m 14.8924,25.8111 c -0.7674,1.199 -1.8385,2.1781 -2.2781,2.5178 h 4.5862 c -0.8873,-0.5275 -1.9084,-1.8984 -2.3081,-2.5178 z"
       fill="#eae0ff"
       id="path23" />
  </g>
  <defs
     id="defs72">
    <filter
       id="filter0_d_18_15105"
       x="3.6168"
       y="7.98932"
       width="12.3833"
       height="12.3832"
       filterUnits="userSpaceOnUse"
       color-interpolation-filters="sRGB">
      <feFlood
         flood-opacity="0"
         result="BackgroundImageFix"
         id="feFlood23" />
      <feColorMatrix
         in="SourceAlpha"
         type="matrix"
         values="0 0 0 0 0 0 0 0 0 0 0 0 0 0 0 0 0 0 127 0"
         result="hardAlpha"
         id="feColorMatrix23" />
      <feOffset
         dx="-0.3"
         dy="0.3"
         id="feOffset23" />
      <feGaussianBlur
         stdDeviation="0.15"
         id="feGaussianBlur23" />
      <feComposite
         in2="hardAlpha"
         operator="out"
         id="feComposite23" />
      <feColorMatrix
         type="matrix"
         values="0 0 0 0 0.921569 0 0 0 0 0.47451 0 0 0 0 0.133333 0 0 0 1 0"
         id="feColorMatrix24" />
      <feBlend
         mode="normal"
         in2="BackgroundImageFix"
         result="effect1_dropShadow_18_15105"
         id="feBlend24" />
      <feBlend
         mode="normal"
         in="SourceGraphic"
         in2="effect1_dropShadow_18_15105"
         result="shape"
         id="feBlend25" />
    </filter>
    <filter
       id="filter1_i_18_15105"
       x="2.09052"
       y="11.1164"
       width="27.819"
       height="18.8836"
       filterUnits="userSpaceOnUse"
       color-interpolation-filters="sRGB">
      <feFlood
         flood-opacity="0"
         result="BackgroundImageFix"
         id="feFlood25" />
      <feBlend
         mode="normal"
         in="SourceGraphic"
         in2="BackgroundImageFix"
         result="shape"
         id="feBlend26" />
      <feColorMatrix
         in="SourceAlpha"
         type="matrix"
         values="0 0 0 0 0 0 0 0 0 0 0 0 0 0 0 0 0 0 127 0"
         result="hardAlpha"
         id="feColorMatrix26" />
      <feOffset
         dy="-1"
         id="feOffset26" />
      <feGaussianBlur
         stdDeviation="1"
         id="feGaussianBlur26" />
      <feComposite
         in2="hardAlpha"
         operator="arithmetic"
         k2="-1"
         k3="1"
         id="feComposite26" />
      <feColorMatrix
         type="matrix"
         values="0 0 0 0 0.815686 0 0 0 0 0.784314 0 0 0 0 0.956863 0 0 0 1 0"
         id="feColorMatrix27" />
      <feBlend
         mode="normal"
         in2="shape"
         result="effect1_innerShadow_18_15105"
         id="feBlend27" />
    </filter>
    <filter
       id="filter2_f_18_15105"
       x="11.1143"
       y="24.3111"
       width="7.58618"
       height="5.51788"
       filterUnits="userSpaceOnUse"
       color-interpolation-filters="sRGB">
      <feFlood
         flood-opacity="0"
         result="BackgroundImageFix"
         id="feFlood27" />
      <feBlend
         mode="normal"
         in="SourceGraphic"
         in2="BackgroundImageFix"
         result="shape"
         id="feBlend28" />
      <feGaussianBlur
         stdDeviation="0.75"
         result="effect1_foregroundBlur_18_15105"
         id="feGaussianBlur28" />
    </filter>
    <linearGradient
       id="paint0_linear_18_15105"
       x1="14.6842"
       y1="8.76739"
       x2="6.26605"
       y2="19.5078"
       gradientUnits="userSpaceOnUse"
       gradientTransform="translate(0,-1.5)">
      <stop
         stop-color="#FC8B23"
         id="stop28" />
      <stop
         offset="1"
         stop-color="#E67639"
         id="stop29" />
    </linearGradient>
    <radialGradient
       id="paint1_radial_18_15105"
       cx="0"
       cy="0"
       r="1"
       gradientUnits="userSpaceOnUse"
       gradientTransform="matrix(-1.5437423,1.3824481,-1.2197514,-1.3620633,11.5257,5.38655)">
      <stop
         offset="0.300161"
         stop-color="#FFA13A"
         id="stop30" />
      <stop
         offset="1"
         stop-color="#FFA13A"
         stop-opacity="0"
         id="stop31" />
    </radialGradient>
    <radialGradient
       id="paint2_radial_18_15105"
       cx="0"
       cy="0"
       r="1"
       gradientUnits="userSpaceOnUse"
       gradientTransform="matrix(1.244211,3.0504439,-2.6914385,1.0977804,6.13416,4.73236)">
      <stop
         offset="0.300161"
         stop-color="#FF942A"
         id="stop32" />
      <stop
         offset="1"
         stop-color="#FF942A"
         stop-opacity="0"
         id="stop33" />
    </radialGradient>
    <radialGradient
       id="paint3_radial_18_15105"
       cx="0"
       cy="0"
       r="1"
       gradientUnits="userSpaceOnUse"
       gradientTransform="matrix(-1.2672469,-0.34560998,0.47854378,-1.7546748,14.9819,7.80585)">
      <stop
         offset="0.300161"
         stop-color="#FFA13D"
         id="stop34" />
      <stop
         offset="1"
         stop-color="#FFA13D"
         stop-opacity="0"
         id="stop35" />
    </radialGradient>
    <radialGradient
       id="paint4_radial_18_15105"
       cx="0"
       cy="0"
       r="1"
       gradientUnits="userSpaceOnUse"
       gradientTransform="matrix(-2.0967179,1.0138188,-0.74877616,-1.548573,17.6316,9.7182)">
      <stop
         offset="0.300161"
         stop-color="#FFA13D"
         id="stop36" />
      <stop
         offset="1"
         stop-color="#FFA13D"
         stop-opacity="0"
         id="stop37" />
    </radialGradient>
    <radialGradient
       id="paint5_radial_18_15105"
       cx="0"
       cy="0"
       r="1"
       gradientUnits="userSpaceOnUse"
       gradientTransform="matrix(-2.5805834,-0.29954223,0.16880216,-1.4542459,18.1385,13.6582)">
      <stop
         offset="0.300161"
         stop-color="#FFA13D"
         id="stop38" />
      <stop
         offset="1"
         stop-color="#FFA13D"
         stop-opacity="0"
         id="stop39" />
    </radialGradient>
    <radialGradient
       id="paint6_radial_18_15105"
       cx="0"
       cy="0"
       r="1"
       gradientUnits="userSpaceOnUse"
       gradientTransform="matrix(1.6961625,-1.635901,1.5759981,1.6340529,15.8113,16.6766)">
      <stop
         stop-color="#E0762A"
         id="stop40" />
      <stop
         offset="1"
         stop-color="#E0762A"
         stop-opacity="0"
         id="stop41" />
    </radialGradient>
    <radialGradient
       id="paint7_radial_18_15105"
       cx="0"
       cy="0"
       r="1"
       gradientUnits="userSpaceOnUse"
       gradientTransform="matrix(-1.1059692,-1.4285335,1.3762194,-1.0654676,4.88995,16.1236)">
      <stop
         stop-color="#E0762A"
         id="stop42" />
      <stop
         offset="1"
         stop-color="#E0762A"
         stop-opacity="0"
         id="stop43" />
    </radialGradient>
    <radialGradient
       id="paint8_radial_18_15105"
       cx="0"
       cy="0"
       r="1"
       gradientUnits="userSpaceOnUse"
       gradientTransform="matrix(1.6589439,0.78338939,-0.94683873,2.0050723,2.42457,10.0178)">
      <stop
         stop-color="#F0851D"
         id="stop44" />
      <stop
         offset="1"
         stop-color="#F0851D"
         stop-opacity="0"
         id="stop45" />
    </radialGradient>
    <radialGradient
       id="paint9_radial_18_15105"
       cx="0"
       cy="0"
       r="1"
       gradientUnits="userSpaceOnUse"
       gradientTransform="matrix(-1.6966556,-1.3025013,1.2288012,-1.6006527,13.3757,19.2931)">
      <stop
         offset="0.336586"
         stop-color="#E3745B"
         id="stop46" />
      <stop
         offset="1"
         stop-color="#E3745B"
         stop-opacity="0"
         id="stop47" />
    </radialGradient>
    <radialGradient
       id="paint10_radial_18_15105"
       cx="0"
       cy="0"
       r="1"
       gradientUnits="userSpaceOnUse"
       gradientTransform="matrix(-4.8932657,9.3049031,-11.490689,-6.0427277,13.4518,10.4677)">
      <stop
         offset="0.17178"
         stop-color="#FFD13D"
         id="stop48" />
      <stop
         offset="1"
         stop-color="#DCA21C"
         id="stop49" />
      <stop
         offset="1"
         stop-color="#D89A29"
         id="stop50" />
    </radialGradient>
    <radialGradient
       id="paint11_radial_18_15105"
       cx="0"
       cy="0"
       r="1"
       gradientUnits="userSpaceOnUse"
       gradientTransform="matrix(-2.835244,-2.3263278,1.964091,-2.393763,8.01439,17.2731)">
      <stop
         offset="0.340699"
         stop-color="#DCA225"
         id="stop51" />
      <stop
         offset="1"
         stop-color="#DCA225"
         stop-opacity="0"
         id="stop52" />
    </radialGradient>
    <radialGradient
       id="paint12_radial_18_15105"
       cx="0"
       cy="0"
       r="1"
       gradientUnits="userSpaceOnUse"
       gradientTransform="matrix(-12.28597,2.5445258,-2.1483271,-10.372968,14.9207,12.8749)">
      <stop
         offset="0.620449"
         stop-color="#DCA225"
         stop-opacity="0"
         id="stop53" />
      <stop
         offset="1"
         stop-color="#DCA225"
         id="stop54" />
    </radialGradient>
    <radialGradient
       id="paint13_radial_18_15105"
       cx="0"
       cy="0"
       r="1"
       gradientUnits="userSpaceOnUse"
       gradientTransform="matrix(-13.396179,0.7822718,-0.7822718,-13.396179,19.8777,11.1594)">
      <stop
         offset="0.21053"
         stop-color="#F0EFF1"
         id="stop55" />
      <stop
         offset="1"
         stop-color="#C9C7CC"
         id="stop56" />
    </radialGradient>
    <radialGradient
       id="paint14_radial_18_15105"
       cx="0"
       cy="0"
       r="1"
       gradientUnits="userSpaceOnUse"
       gradientTransform="matrix(-2.5422982,-4.8891249,6.7025233,-3.485248,13.7174,16.6352)">
      <stop
         stop-color="#CDCDCE"
         id="stop57" />
      <stop
         offset="1"
         stop-color="#CDCDCE"
         stop-opacity="0"
         id="stop58" />
    </radialGradient>
    <linearGradient
       id="paint15_linear_18_15105"
       x1="16"
       y1="12.1164"
       x2="16"
       y2="30"
       gradientUnits="userSpaceOnUse">
      <stop
         stop-color="#C7C6C6"
         id="stop59" />
      <stop
         offset="1"
         stop-color="#D5D4DA"
         id="stop60" />
    </linearGradient>
    <linearGradient
       id="paint16_linear_18_15105"
       x1="18.8419"
       y1="29.0384"
       x2="18.8419"
       y2="21.5741"
       gradientUnits="userSpaceOnUse">
      <stop
         stop-color="#DED7FA"
         id="stop61" />
      <stop
         offset="1"
         stop-color="#DED7FA"
         stop-opacity="0"
         id="stop62" />
    </linearGradient>
    <radialGradient
       id="paint17_radial_18_15105"
       cx="0"
       cy="0"
       r="1"
       gradientUnits="userSpaceOnUse"
       gradientTransform="matrix(-6.9917713,-12.191047,12.796622,-7.3390789,20.9044,29.1357)">
      <stop
         stop-color="#D5CBFF"
         id="stop63" />
      <stop
         offset="1"
         stop-color="#D5CBFF"
         stop-opacity="0"
         id="stop64" />
    </radialGradient>
    <radialGradient
       id="paint18_radial_18_15105"
       cx="0"
       cy="0"
       r="1"
       gradientUnits="userSpaceOnUse"
       gradientTransform="matrix(-10.063924,7.3583982,-7.8933785,-10.795605,26.3063,16.629)">
      <stop
         offset="0.178875"
         stop-color="#FCFBFE"
         id="stop65" />
      <stop
         offset="1"
         stop-color="#FCFBFE"
         stop-opacity="0"
         id="stop66" />
    </radialGradient>
    <radialGradient
       id="paint19_radial_18_15105"
       cx="0"
       cy="0"
       r="1"
       gradientUnits="userSpaceOnUse"
       gradientTransform="matrix(-5.5310739,3.9534389,-4.1426061,-5.7957291,8.70615,20.8782)">
      <stop
         stop-color="#FCFBFE"
         id="stop67" />
      <stop
         offset="1"
         stop-color="#FCFBFE"
         stop-opacity="0"
         id="stop68" />
    </radialGradient>
    <radialGradient
       id="paint20_radial_18_15105"
       cx="0"
       cy="0"
       r="1"
       gradientUnits="userSpaceOnUse"
       gradientTransform="matrix(-23.063263,5.4714791,-4.3089681,-18.163071,25.1538,19.0281)">
      <stop
         offset="0.815422"
         stop-color="#CECCD7"
         stop-opacity="0"
         id="stop69" />
      <stop
         offset="1"
         stop-color="#CECCD7"
         id="stop70" />
    </radialGradient>
    <radialGradient
       id="paint21_radial_18_15105"
       cx="0"
       cy="0"
       r="1"
       gradientUnits="userSpaceOnUse"
       gradientTransform="matrix(5.2937477,-6.3715968,8.7929448,7.3054892,5.7113,29.5116)">
      <stop
         stop-color="#D0C9EE"
         id="stop71" />
      <stop
         offset="1"
         stop-color="#D0C9EE"
         stop-opacity="0"
         id="stop72" />
    </radialGradient>
  </defs>
</svg>
