<?xml version="1.0" encoding="UTF-8" standalone="no"?>
<svg
   width="32"
   height="32"
   viewBox="0 0 32 32"
   fill="none"
   version="1.1"
   id="svg65"
   sodipodi:docname="moon_behind_small_cloud_color.svg"
   xml:space="preserve"
   inkscape:version="1.3.2 (091e20e, 2023-11-25, custom)"
   xmlns:inkscape="http://www.inkscape.org/namespaces/inkscape"
   xmlns:sodipodi="http://sodipodi.sourceforge.net/DTD/sodipodi-0.dtd"
   xmlns="http://www.w3.org/2000/svg"
   xmlns:svg="http://www.w3.org/2000/svg"><sodipodi:namedview
     id="namedview65"
     pagecolor="#ffffff"
     bordercolor="#000000"
     borderopacity="0.25"
     inkscape:showpageshadow="2"
     inkscape:pageopacity="0.0"
     inkscape:pagecheckerboard="0"
     inkscape:deskcolor="#d1d1d1"
     inkscape:zoom="34.34375"
     inkscape:cx="16"
     inkscape:cy="16"
     inkscape:window-width="2560"
     inkscape:window-height="1334"
     inkscape:window-x="-11"
     inkscape:window-y="-11"
     inkscape:window-maximized="1"
     inkscape:current-layer="svg65" /><g
     style="fill:none"
     id="g65"
     transform="matrix(0.88339223,0,0,0.88339223,0.07752305,3.1408332)"><circle
       cx="16"
       cy="16"
       r="14"
       fill="url(#paint0_radial_18_13993)"
       id="circle1"
       style="fill:url(#paint0_radial_18_13993)" /><g
       filter="url(#filter0_i_18_13993)"
       id="g2"><circle
         cx="16"
         cy="16"
         r="14"
         fill="url(#paint1_radial_18_13993)"
         id="circle2"
         style="fill:url(#paint1_radial_18_13993)" /></g><circle
       cx="15.5"
       cy="5.5"
       r="1.5"
       fill="url(#paint2_linear_18_13993)"
       id="circle3"
       style="fill:url(#paint2_linear_18_13993)" /><circle
       cx="22.5"
       cy="11.5"
       r="2.5"
       fill="url(#paint3_radial_18_13993)"
       id="circle4"
       style="fill:url(#paint3_radial_18_13993)" /><circle
       cx="22.5"
       cy="11.5"
       r="2.5"
       fill="url(#paint4_radial_18_13993)"
       id="circle5"
       style="fill:url(#paint4_radial_18_13993)" /><g
       filter="url(#filter1_f_18_13993)"
       id="g6"><circle
         cx="22.5"
         cy="11.5"
         r="2.5"
         stroke="url(#paint5_linear_18_13993)"
         stroke-width="0.2"
         id="circle6"
         style="stroke:url(#paint5_linear_18_13993)" /></g><path
       d="M 10.1888,28.7407 C 8.02324,27.7514 6.15381,26.2261 4.75012,24.3346 5.39104,23.5218 6.38459,23 7.50001,23 9.433,23 11,24.567 11,26.5 c 0,0.8524 -0.3047,1.6336 -0.8112,2.2407 z"
       fill="url(#paint6_linear_18_13993)"
       id="path6-8"
       style="fill:url(#paint6_linear_18_13993)" /><path
       d="M 10.1888,28.7407 C 8.02324,27.7514 6.15381,26.2261 4.75012,24.3346 5.39104,23.5218 6.38459,23 7.50001,23 9.433,23 11,24.567 11,26.5 c 0,0.8524 -0.3047,1.6336 -0.8112,2.2407 z"
       fill="url(#paint7_linear_18_13993)"
       id="path7-8"
       style="fill:url(#paint7_linear_18_13993)" /><g
       filter="url(#filter2_f_18_13993)"
       id="g8"><path
         d="M 28.8773,21.316 C 28.4341,21.1131 27.9412,21 27.4219,21 c -1.933,0 -3.5,1.567 -3.5,3.5 0,0.8912 0.3331,1.7047 0.8816,2.3226"
         stroke="url(#paint8_linear_18_13993)"
         stroke-width="0.2"
         id="path8-1"
         style="stroke:url(#paint8_linear_18_13993)" /></g><path
       d="M 28.9554,21.316 C 28.0686,23.4748 26.658,25.3631 24.8816,26.8226 24.3331,26.2047 24,25.3912 24,24.5 24,22.567 25.567,21 27.5,21 c 0.5193,0 1.0122,0.1131 1.4554,0.316 z"
       fill="url(#paint9_linear_18_13993)"
       id="path9-1"
       style="fill:url(#paint9_linear_18_13993)" /><path
       d="M 28.9554,21.316 C 28.0686,23.4748 26.658,25.3631 24.8816,26.8226 24.3331,26.2047 24,25.3912 24,24.5 24,22.567 25.567,21 27.5,21 c 0.5193,0 1.0122,0.1131 1.4554,0.316 z"
       fill="url(#paint10_radial_18_13993)"
       id="path10-1"
       style="fill:url(#paint10_radial_18_13993)" /><circle
       cx="16.5"
       cy="21.5"
       r="2.5"
       fill="url(#paint11_linear_18_13993)"
       id="circle10"
       style="fill:url(#paint11_linear_18_13993)" /><path
       d="M 17.3996,2.06908 C 16.9393,2.02339 16.4724,2 16,2 8.26801,2 2,8.26801 2,16 c 0,7.732 6.26801,14 14,14 0.4723,0 0.9391,-0.0234 1.3994,-0.0691 C 21.4288,26.6299 24,21.6152 24,15.9999 24,15.2474 23.9387,14.3757 23.7916,13.649 22.6979,13.2012 22,12.2548 22,10.9999 22,10.2971 22.1843,9.49701 22.589,8.98566 21.445,6.21277 19.6857,3.942 17.3996,2.06908 Z"
       fill="url(#paint12_radial_18_13993)"
       id="path11-0"
       style="fill:url(#paint12_radial_18_13993)" /><path
       d="M 17.3996,2.06908 C 16.9393,2.02339 16.4724,2 16,2 8.26801,2 2,8.26801 2,16 c 0,7.732 6.26801,14 14,14 0.4723,0 0.9391,-0.0234 1.3994,-0.0691 C 21.4288,26.6299 24,21.6152 24,15.9999 24,15.2474 23.9387,14.3757 23.7916,13.649 22.6979,13.2012 22,12.2548 22,10.9999 22,10.2971 22.1843,9.49701 22.589,8.98566 21.445,6.21277 19.6857,3.942 17.3996,2.06908 Z"
       fill="url(#paint13_radial_18_13993)"
       id="path12-4"
       style="fill:url(#paint13_radial_18_13993)" /><path
       d="M 17.3996,2.06908 C 16.9393,2.02339 16.4724,2 16,2 8.26801,2 2,8.26801 2,16 c 0,7.732 6.26801,14 14,14 0.4723,0 0.9391,-0.0234 1.3994,-0.0691 C 21.4288,26.6299 24,21.6152 24,15.9999 24,15.2474 23.9387,14.3757 23.7916,13.649 22.6979,13.2012 22,12.2548 22,10.9999 22,10.2971 22.1843,9.49701 22.589,8.98566 21.445,6.21277 19.6857,3.942 17.3996,2.06908 Z"
       fill="url(#paint14_radial_18_13993)"
       id="path13-9"
       style="fill:url(#paint14_radial_18_13993)" /><path
       d="M 17.3996,2.06908 C 16.9393,2.02339 16.4724,2 16,2 8.26801,2 2,8.26801 2,16 c 0,7.732 6.26801,14 14,14 0.4723,0 0.9391,-0.0234 1.3994,-0.0691 C 21.4288,26.6299 24,21.6152 24,15.9999 24,15.2474 23.9387,14.3757 23.7916,13.649 22.6979,13.2012 22,12.2548 22,10.9999 22,10.2971 22.1843,9.49701 22.589,8.98566 21.445,6.21277 19.6857,3.942 17.3996,2.06908 Z"
       fill="url(#paint15_radial_18_13993)"
       id="path14-1"
       style="fill:url(#paint15_radial_18_13993)" /><path
       d="M 17.3996,2.06908 C 16.9393,2.02339 16.4724,2 16,2 8.26801,2 2,8.26801 2,16 c 0,7.732 6.26801,14 14,14 0.4723,0 0.9391,-0.0234 1.3994,-0.0691 C 21.4288,26.6299 24,21.6152 24,15.9999 24,15.2474 23.9387,14.3757 23.7916,13.649 22.6979,13.2012 22,12.2548 22,10.9999 22,10.2971 22.1843,9.49701 22.589,8.98566 21.445,6.21277 19.6857,3.942 17.3996,2.06908 Z"
       fill="url(#paint16_radial_18_13993)"
       id="path15-6"
       style="fill:url(#paint16_radial_18_13993)" /><circle
       cx="16.5"
       cy="21.5"
       r="2.5"
       fill="url(#paint17_linear_18_13993)"
       id="circle15"
       style="fill:url(#paint17_linear_18_13993)" /><g
       filter="url(#filter3_f_18_13993)"
       id="g18"><circle
         cx="16.5"
         cy="21.5"
         r="2.5"
         fill="url(#paint18_radial_18_13993)"
         id="circle16"
         style="fill:url(#paint18_radial_18_13993)" /><circle
         cx="16.5"
         cy="21.5"
         r="2.5"
         fill="url(#paint19_radial_18_13993)"
         id="circle17"
         style="fill:url(#paint19_radial_18_13993)" /><circle
         cx="16.5"
         cy="21.5"
         r="2.575"
         stroke="url(#paint20_linear_18_13993)"
         stroke-width="0.15"
         id="circle18"
         style="stroke:url(#paint20_linear_18_13993)" /></g><circle
       cx="9.5"
       cy="12.5"
       r="3.5"
       fill="url(#paint21_linear_18_13993)"
       id="circle19"
       style="fill:url(#paint21_linear_18_13993)" /><circle
       cx="9.5"
       cy="12.5"
       r="3.5"
       fill="url(#paint22_linear_18_13993)"
       id="circle20"
       style="fill:url(#paint22_linear_18_13993)" /><g
       filter="url(#filter4_f_18_13993)"
       id="g20"><circle
         cx="9.5"
         cy="12.5"
         transform="rotate(-90,9.5,12.5)"
         stroke="url(#paint23_linear_18_13993)"
         stroke-width="0.2"
         id="ellipse20"
         r="3.5"
         style="stroke:url(#paint23_linear_18_13993)" /></g><circle
       cx="9.5"
       cy="12.5"
       transform="rotate(-90,9.5,12.5)"
       fill="url(#paint24_radial_18_13993)"
       id="ellipse21"
       r="3.5"
       style="fill:url(#paint24_radial_18_13993)" /><circle
       cx="9.5"
       cy="12.5"
       transform="rotate(-90,9.5,12.5)"
       fill="url(#paint25_radial_18_13993)"
       id="ellipse22"
       r="3.5"
       style="fill:url(#paint25_radial_18_13993)" /><circle
       cx="9.5"
       cy="12.5"
       transform="rotate(-90,9.5,12.5)"
       fill="url(#paint26_radial_18_13993)"
       id="ellipse23"
       r="3.5"
       style="fill:url(#paint26_radial_18_13993)" /><g
       filter="url(#filter5_f_18_13993)"
       id="g25"><ellipse
         cx="15.7241"
         cy="5.5"
         rx="1.72411"
         ry="1.5"
         fill="url(#paint27_radial_18_13993)"
         id="ellipse24"
         style="fill:url(#paint27_radial_18_13993)" /><ellipse
         cx="15.7241"
         cy="5.5"
         rx="1.72411"
         ry="1.5"
         fill="url(#paint28_radial_18_13993)"
         id="ellipse25"
         style="fill:url(#paint28_radial_18_13993)" /><path
         d="m 15.7241,7.075 c 0.9835,0 1.7991,-0.69569 1.7991,-1.575 0,-0.87931 -0.8156,-1.575 -1.7991,-1.575 -0.9835,0 -1.7991,0.69569 -1.7991,1.575 0,0.87931 0.8156,1.575 1.7991,1.575 z"
         stroke="url(#paint29_linear_18_13993)"
         stroke-width="0.15"
         id="path25"
         style="stroke:url(#paint29_linear_18_13993)" /></g><g
       filter="url(#filter6_f_18_13993)"
       id="g26"><path
         d="M 22.1391,9.0376 C 21.0836,9.22794 20,10.1193 20,11.5 c 0,1.3807 1.1193,2.5 2.5,2.5 0.4306,0 0.6351,-0.0468 0.9888,-0.2386"
         stroke="#fffbaf"
         stroke-width="0.25"
         id="path26" /></g><g
       filter="url(#filter7_f_18_13993)"
       id="g27"><path
         d="M 10.3475,28.6357 C 8.18193,27.6463 6.3125,26.1211 4.90881,24.2295 5.54973,23.4167 6.4693,22.9736 7.58472,22.9736 c 1.933,0 3.32758,1.7245 3.41528,3.424 0,0.8524 -0.146,1.631 -0.6525,2.2381 z"
         stroke="url(#paint30_linear_18_13993)"
         stroke-width="0.2"
         id="path27"
         style="stroke:url(#paint30_linear_18_13993)" /></g><path
       d="M 22.5889,9.00155 C 22.5594,9.00052 22.5297,9 22.5,9 21.1193,9 20,10.1193 20,11.5 c 0,1.3807 1.1193,2.5 2.5,2.5 0.4306,0 0.9292,-0.1852 1.283,-0.377 C 22.7827,13.1366 22,12.1869 22,10.9999 22,10.3613 22.0872,9.83354 22.5889,9.00155 Z"
       fill="url(#paint31_radial_18_13993)"
       id="path28"
       style="fill:url(#paint31_radial_18_13993)" /><path
       d="M 10.1888,28.7407 C 8.02324,27.7514 6.15381,26.2261 4.75012,24.3346 5.39104,23.5218 6.38459,23 7.50001,23 9.433,23 11,24.567 11,26.5 c 0,0.8524 -0.3047,1.6336 -0.8112,2.2407 z"
       fill="url(#paint32_linear_18_13993)"
       id="path29"
       style="fill:url(#paint32_linear_18_13993)" /><path
       d="M 10.1888,28.7407 C 8.02324,27.7514 6.15381,26.2261 4.75012,24.3346 5.39104,23.5218 6.38459,23 7.50001,23 9.433,23 11,24.567 11,26.5 c 0,0.8524 -0.3047,1.6336 -0.8112,2.2407 z"
       fill="url(#paint33_radial_18_13993)"
       id="path30"
       style="fill:url(#paint33_radial_18_13993)" /></g><path
     d="M16.6909 24.8517C18.3648 24.8517 19.7218 23.4947 19.7218 21.8208C19.7218 20.1468 18.3648 18.7898 16.6909 18.7898C15.0169 18.7898 13.6599 20.1468 13.6599 21.8208C13.6599 23.4947 15.0169 24.8517 16.6909 24.8517Z"
     fill="url(#paint13_radial_18_15087)"
     id="path14" /><path
     d="M16.6909 24.8517C18.3648 24.8517 19.7218 23.4947 19.7218 21.8208C19.7218 20.1468 18.3648 18.7898 16.6909 18.7898C15.0169 18.7898 13.6599 20.1468 13.6599 21.8208C13.6599 23.4947 15.0169 24.8517 16.6909 24.8517Z"
     fill="url(#paint14_radial_18_15087)"
     id="path15" /><g
     filter="url(#filter1_i_18_15087)"
     id="g17"><path
       d="M27.9671 18.7861C25.2985 16.1852 21.0287 16.2303 18.4277 18.8989C17.7547 19.5852 17.2648 20.3779 16.9423 21.2244C16.8814 21.3842 16.6842 21.447 16.54 21.3553C16.3275 21.2202 16.1032 21.1014 15.8718 21.0037C15.2554 20.7181 14.5713 20.5602 13.8497 20.5602C11.166 20.5602 8.99353 22.7327 8.99353 25.4163C8.99353 26.5589 9.39194 27.6114 10.0535 28.4458C10.948 29.6185 12.3537 30.3702 13.9399 30.3702C15.8493 30.3702 21.3369 30.3702 23.4793 30.3702C25.5991 30.3702 27.4709 29.3253 28.6136 27.7241C30.6583 25.048 30.4403 21.1992 27.9671 18.7861Z"
       fill="#D5D4DA"
       id="path16" /><path
       d="M27.9671 18.7861C25.2985 16.1852 21.0287 16.2303 18.4277 18.8989C17.7547 19.5852 17.2648 20.3779 16.9423 21.2244C16.8814 21.3842 16.6842 21.447 16.54 21.3553C16.3275 21.2202 16.1032 21.1014 15.8718 21.0037C15.2554 20.7181 14.5713 20.5602 13.8497 20.5602C11.166 20.5602 8.99353 22.7327 8.99353 25.4163C8.99353 26.5589 9.39194 27.6114 10.0535 28.4458C10.948 29.6185 12.3537 30.3702 13.9399 30.3702C15.8493 30.3702 21.3369 30.3702 23.4793 30.3702C25.5991 30.3702 27.4709 29.3253 28.6136 27.7241C30.6583 25.048 30.4403 21.1992 27.9671 18.7861Z"
       fill="url(#paint15_linear_18_15087)"
       id="path17" /></g><path
     d="M27.9671 18.7861C25.2985 16.1852 21.0287 16.2303 18.4277 18.8989C17.7547 19.5852 17.2648 20.3779 16.9423 21.2244C16.8814 21.3842 16.6842 21.447 16.54 21.3553C16.3275 21.2202 16.1032 21.1014 15.8718 21.0037C15.2554 20.7181 14.5713 20.5602 13.8497 20.5602C11.166 20.5602 8.99353 22.7327 8.99353 25.4163C8.99353 26.5589 9.39194 27.6114 10.0535 28.4458C10.948 29.6185 12.3537 30.3702 13.9399 30.3702C15.8493 30.3702 21.3369 30.3702 23.4793 30.3702C25.5991 30.3702 27.4709 29.3253 28.6136 27.7241C30.6583 25.048 30.4403 21.1992 27.9671 18.7861Z"
     fill="url(#paint16_radial_18_15087)"
     id="path18" /><path
     d="M27.9671 18.7861C25.2985 16.1852 21.0287 16.2303 18.4277 18.8989C17.7547 19.5852 17.2648 20.3779 16.9423 21.2244C16.8814 21.3842 16.6842 21.447 16.54 21.3553C16.3275 21.2202 16.1032 21.1014 15.8718 21.0037C15.2554 20.7181 14.5713 20.5602 13.8497 20.5602C11.166 20.5602 8.99353 22.7327 8.99353 25.4163C8.99353 26.5589 9.39194 27.6114 10.0535 28.4458C10.948 29.6185 12.3537 30.3702 13.9399 30.3702C15.8493 30.3702 21.3369 30.3702 23.4793 30.3702C25.5991 30.3702 27.4709 29.3253 28.6136 27.7241C30.6583 25.048 30.4403 21.1992 27.9671 18.7861Z"
     fill="url(#paint17_radial_18_15087)"
     id="path19" /><path
     d="M27.9671 18.7861C25.2985 16.1852 21.0287 16.2303 18.4277 18.8989C17.7547 19.5852 17.2648 20.3779 16.9423 21.2244C16.8814 21.3842 16.6842 21.447 16.54 21.3553C16.3275 21.2202 16.1032 21.1014 15.8718 21.0037C15.2554 20.7181 14.5713 20.5602 13.8497 20.5602C11.166 20.5602 8.99353 22.7327 8.99353 25.4163C8.99353 26.5589 9.39194 27.6114 10.0535 28.4458C10.948 29.6185 12.3537 30.3702 13.9399 30.3702C15.8493 30.3702 21.3369 30.3702 23.4793 30.3702C25.5991 30.3702 27.4709 29.3253 28.6136 27.7241C30.6583 25.048 30.4403 21.1992 27.9671 18.7861Z"
     fill="url(#paint18_radial_18_15087)"
     id="path20" /><path
     d="M27.9671 18.7861C25.2985 16.1852 21.0287 16.2303 18.4277 18.8989C17.7547 19.5852 17.2648 20.3779 16.9423 21.2244C16.8814 21.3842 16.6842 21.447 16.54 21.3553C16.3275 21.2202 16.1032 21.1014 15.8718 21.0037C15.2554 20.7181 14.5713 20.5602 13.8497 20.5602C11.166 20.5602 8.99353 22.7327 8.99353 25.4163C8.99353 26.5589 9.39194 27.6114 10.0535 28.4458C10.948 29.6185 12.3537 30.3702 13.9399 30.3702C15.8493 30.3702 21.3369 30.3702 23.4793 30.3702C25.5991 30.3702 27.4709 29.3253 28.6136 27.7241C30.6583 25.048 30.4403 21.1992 27.9671 18.7861Z"
     fill="url(#paint19_radial_18_15087)"
     id="path21" /><defs
     id="defs65"><filter
       id="filter0_d_18_15087"
       x="3.96104"
       y="7.02435"
       width="20.2365"
       height="20.2365"
       filterUnits="userSpaceOnUse"
       color-interpolation-filters="sRGB"><feFlood
         flood-opacity="0"
         result="BackgroundImageFix"
         id="feFlood21" /><feColorMatrix
         in="SourceAlpha"
         type="matrix"
         values="0 0 0 0 0 0 0 0 0 0 0 0 0 0 0 0 0 0 127 0"
         result="hardAlpha"
         id="feColorMatrix21" /><feOffset
         dx="-0.3"
         dy="0.3"
         id="feOffset21" /><feGaussianBlur
         stdDeviation="0.15"
         id="feGaussianBlur21" /><feComposite
         in2="hardAlpha"
         operator="out"
         id="feComposite21" /><feColorMatrix
         type="matrix"
         values="0 0 0 0 0.921569 0 0 0 0 0.47451 0 0 0 0 0.133333 0 0 0 1 0"
         id="feColorMatrix22" /><feBlend
         mode="normal"
         in2="BackgroundImageFix"
         result="effect1_dropShadow_18_15087"
         id="feBlend22" /><feBlend
         mode="normal"
         in="SourceGraphic"
         in2="effect1_dropShadow_18_15087"
         result="shape"
         id="feBlend23" /></filter><filter
       id="filter1_i_18_15087"
       x="8.99353"
       y="15.866"
       width="21.0065"
       height="14.5042"
       filterUnits="userSpaceOnUse"
       color-interpolation-filters="sRGB"><feFlood
         flood-opacity="0"
         result="BackgroundImageFix"
         id="feFlood23" /><feBlend
         mode="normal"
         in="SourceGraphic"
         in2="BackgroundImageFix"
         result="shape"
         id="feBlend24" /><feColorMatrix
         in="SourceAlpha"
         type="matrix"
         values="0 0 0 0 0 0 0 0 0 0 0 0 0 0 0 0 0 0 127 0"
         result="hardAlpha"
         id="feColorMatrix24" /><feOffset
         dy="-1"
         id="feOffset24" /><feGaussianBlur
         stdDeviation="1"
         id="feGaussianBlur24" /><feComposite
         in2="hardAlpha"
         operator="arithmetic"
         k2="-1"
         k3="1"
         id="feComposite24" /><feColorMatrix
         type="matrix"
         values="0 0 0 0 0.815686 0 0 0 0 0.784314 0 0 0 0 0.956863 0 0 0 1 0"
         id="feColorMatrix25" /><feBlend
         mode="normal"
         in2="shape"
         result="effect1_innerShadow_18_15087"
         id="feBlend25" /></filter><linearGradient
       id="paint0_linear_18_15087"
       x1="22.0048"
       y1="8.32105"
       x2="7.9761"
       y2="26.2198"
       gradientUnits="userSpaceOnUse"><stop
         stop-color="#FC8B23"
         id="stop25" /><stop
         offset="1"
         stop-color="#E67639"
         id="stop26" /></linearGradient><radialGradient
       id="paint1_radial_18_15087"
       cx="0"
       cy="0"
       r="1"
       gradientUnits="userSpaceOnUse"
       gradientTransform="translate(16.7412 5.18666) rotate(138.155) scale(3.4534 3.04696)"><stop
         offset="0.300161"
         stop-color="#FFA13A"
         id="stop27" /><stop
         offset="1"
         stop-color="#FFA13A"
         stop-opacity="0"
         id="stop28" /></radialGradient><radialGradient
       id="paint2_radial_18_15087"
       cx="0"
       cy="0"
       r="1"
       gradientUnits="userSpaceOnUse"
       gradientTransform="translate(7.75631 4.09647) rotate(67.8105) scale(5.49009 4.84396)"><stop
         offset="0.300161"
         stop-color="#FF942A"
         id="stop29" /><stop
         offset="1"
         stop-color="#FF942A"
         stop-opacity="0"
         id="stop30" /></radialGradient><radialGradient
       id="paint3_radial_18_15087"
       cx="0"
       cy="0"
       r="1"
       gradientUnits="userSpaceOnUse"
       gradientTransform="translate(22.5008 9.21837) rotate(-164.745) scale(2.18897 3.03092)"><stop
         offset="0.300161"
         stop-color="#FFA13D"
         id="stop31" /><stop
         offset="1"
         stop-color="#FFA13D"
         stop-opacity="0"
         id="stop32" /></radialGradient><radialGradient
       id="paint4_radial_18_15087"
       cx="0"
       cy="0"
       r="1"
       gradientUnits="userSpaceOnUse"
       gradientTransform="translate(26.9165 12.4053) rotate(154.195) scale(3.88115 2.86651)"><stop
         offset="0.300161"
         stop-color="#FFA13D"
         id="stop33" /><stop
         offset="1"
         stop-color="#FFA13D"
         stop-opacity="0"
         id="stop34" /></radialGradient><radialGradient
       id="paint5_radial_18_15087"
       cx="0"
       cy="0"
       r="1"
       gradientUnits="userSpaceOnUse"
       gradientTransform="translate(27.7612 18.9712) rotate(-173.379) scale(4.32935 2.43974)"><stop
         offset="0.300161"
         stop-color="#FFA13D"
         id="stop35" /><stop
         offset="1"
         stop-color="#FFA13D"
         stop-opacity="0"
         id="stop36" /></radialGradient><radialGradient
       id="paint6_radial_18_15087"
       cx="0"
       cy="0"
       r="1"
       gradientUnits="userSpaceOnUse"
       gradientTransform="translate(23.8831 24.0013) rotate(-43.9639) scale(3.92708 3.78328)"><stop
         stop-color="#E0762A"
         id="stop37" /><stop
         offset="1"
         stop-color="#E0762A"
         stop-opacity="0"
         id="stop38" /></radialGradient><radialGradient
       id="paint7_radial_18_15087"
       cx="0"
       cy="0"
       r="1"
       gradientUnits="userSpaceOnUse"
       gradientTransform="translate(5.68287 23.0797) rotate(-127.747) scale(3.01069 2.90045)"><stop
         stop-color="#E0762A"
         id="stop39" /><stop
         offset="1"
         stop-color="#E0762A"
         stop-opacity="0"
         id="stop40" /></radialGradient><radialGradient
       id="paint8_radial_18_15087"
       cx="0"
       cy="0"
       r="1"
       gradientUnits="userSpaceOnUse"
       gradientTransform="translate(1.57437 12.9045) rotate(25.2777) scale(3.05734 3.69523)"><stop
         stop-color="#F0851D"
         id="stop41" /><stop
         offset="1"
         stop-color="#F0851D"
         stop-opacity="0"
         id="stop42" /></radialGradient><radialGradient
       id="paint9_radial_18_15087"
       cx="0"
       cy="0"
       r="1"
       gradientUnits="userSpaceOnUse"
       gradientTransform="translate(19.8242 28.3616) rotate(-142.487) scale(3.56453 3.36283)"><stop
         offset="0.336586"
         stop-color="#E3745B"
         id="stop43" /><stop
         offset="1"
         stop-color="#E3745B"
         stop-opacity="0"
         id="stop44" /></radialGradient><radialGradient
       id="paint10_radial_18_15087"
       cx="0"
       cy="0"
       r="1"
       gradientUnits="userSpaceOnUse"
       gradientTransform="translate(19.951 11.1545) rotate(117.739) scale(17.5199 21.6353)"><stop
         offset="0.17178"
         stop-color="#FFD13D"
         id="stop45" /><stop
         offset="1"
         stop-color="#DCA21C"
         id="stop46" /><stop
         offset="1"
         stop-color="#D89A29"
         id="stop47" /></radialGradient><radialGradient
       id="paint11_radial_18_15087"
       cx="0"
       cy="0"
       r="1"
       gradientUnits="userSpaceOnUse"
       gradientTransform="translate(10.8896 22.4956) rotate(-140.631) scale(6.11177 5.16011)"><stop
         offset="0.340699"
         stop-color="#DCA225"
         id="stop48" /><stop
         offset="1"
         stop-color="#DCA225"
         stop-opacity="0"
         id="stop49" /></radialGradient><radialGradient
       id="paint12_radial_18_15087"
       cx="0"
       cy="0"
       r="1"
       gradientUnits="userSpaceOnUse"
       gradientTransform="translate(22.3989 15.166) rotate(168.299) scale(20.9088 17.6531)"><stop
         offset="0.620449"
         stop-color="#DCA225"
         stop-opacity="0"
         id="stop50" /><stop
         offset="1"
         stop-color="#DCA225"
         id="stop51" /></radialGradient><radialGradient
       id="paint13_radial_18_15087"
       cx="0"
       cy="0"
       r="1"
       gradientUnits="userSpaceOnUse"
       gradientTransform="translate(17.7836 20.6962) rotate(-172.463) scale(4.15963)"><stop
         offset="0.308752"
         stop-color="#E8E8E9"
         id="stop52" /><stop
         offset="1"
         stop-color="#D2D2D2"
         id="stop53" /></radialGradient><radialGradient
       id="paint14_radial_18_15087"
       cx="0"
       cy="0"
       r="1"
       gradientUnits="userSpaceOnUse"
       gradientTransform="translate(17.0148 21.5643) rotate(-141.242) scale(2.25812 2.06896)"><stop
         stop-color="#CDCDCE"
         id="stop54" /><stop
         offset="1"
         stop-color="#CDCDCE"
         stop-opacity="0"
         id="stop55" /></radialGradient><linearGradient
       id="paint15_linear_18_15087"
       x1="21.6428"
       y1="29.6441"
       x2="21.6428"
       y2="24.0076"
       gradientUnits="userSpaceOnUse"><stop
         stop-color="#DED7FA"
         id="stop56" /><stop
         offset="1"
         stop-color="#DED7FA"
         stop-opacity="0"
         id="stop57" /></linearGradient><radialGradient
       id="paint16_radial_18_15087"
       cx="0"
       cy="0"
       r="1"
       gradientUnits="userSpaceOnUse"
       gradientTransform="translate(27.2792 21.4062) rotate(136.5) scale(8.36814 8.97651)"><stop
         offset="0.178875"
         stop-color="#FCFBFE"
         id="stop58" /><stop
         offset="1"
         stop-color="#FCFBFE"
         stop-opacity="0"
         id="stop59" /></radialGradient><radialGradient
       id="paint17_radial_18_15087"
       cx="0"
       cy="0"
       r="1"
       gradientUnits="userSpaceOnUse"
       gradientTransform="translate(13.9891 24.6148) rotate(144.444) scale(5.1338 5.37944)"><stop
         stop-color="#FCFBFE"
         id="stop60" /><stop
         offset="1"
         stop-color="#FCFBFE"
         stop-opacity="0"
         id="stop61" /></radialGradient><radialGradient
       id="paint18_radial_18_15087"
       cx="0"
       cy="0"
       r="1"
       gradientUnits="userSpaceOnUse"
       gradientTransform="translate(26.4089 23.2178) rotate(166.654) scale(17.8988 14.0959)"><stop
         offset="0.815422"
         stop-color="#CECCD7"
         stop-opacity="0"
         id="stop62" /><stop
         offset="1"
         stop-color="#CECCD7"
         id="stop63" /></radialGradient><radialGradient
       id="paint19_radial_18_15087"
       cx="0"
       cy="0"
       r="1"
       gradientUnits="userSpaceOnUse"
       gradientTransform="translate(11.7276 31.134) rotate(-46.7899) scale(4.8491 6.69189)"><stop
         stop-color="#D0C9EE"
         id="stop64" /><stop
         offset="1"
         stop-color="#D0C9EE"
         stop-opacity="0"
         id="stop65" /></radialGradient><filter
       id="filter0_i_18_13993"
       x="1.7"
       y="1.7"
       width="28.3"
       height="28.3"
       filterUnits="userSpaceOnUse"
       color-interpolation-filters="sRGB"><feFlood
         flood-opacity="0"
         result="BackgroundImageFix"
         id="feFlood30" /><feBlend
         mode="normal"
         in="SourceGraphic"
         in2="BackgroundImageFix"
         result="shape"
         id="feBlend30" /><feColorMatrix
         in="SourceAlpha"
         type="matrix"
         values="0 0 0 0 0 0 0 0 0 0 0 0 0 0 0 0 0 0 127 0"
         result="hardAlpha"
         id="feColorMatrix30" /><feOffset
         dx="-0.3"
         dy="-0.3"
         id="feOffset30" /><feGaussianBlur
         stdDeviation="0.5"
         id="feGaussianBlur30" /><feComposite
         in2="hardAlpha"
         operator="arithmetic"
         k2="-1"
         k3="1"
         id="feComposite30" /><feColorMatrix
         type="matrix"
         values="0 0 0 0 0.568627 0 0 0 0 0.454902 0 0 0 0 0.705882 0 0 0 1 0"
         id="feColorMatrix31" /><feBlend
         mode="normal"
         in2="shape"
         result="effect1_innerShadow_18_13993"
         id="feBlend31" /></filter><filter
       id="filter1_f_18_13993"
       x="19.5"
       y="8.50002"
       width="5.99995"
       height="5.99995"
       filterUnits="userSpaceOnUse"
       color-interpolation-filters="sRGB"><feFlood
         flood-opacity="0"
         result="BackgroundImageFix"
         id="feFlood31" /><feBlend
         mode="normal"
         in="SourceGraphic"
         in2="BackgroundImageFix"
         result="shape"
         id="feBlend32" /><feGaussianBlur
         stdDeviation="0.2"
         result="effect1_foregroundBlur_18_13993"
         id="feGaussianBlur32" /></filter><filter
       id="filter2_f_18_13993"
       x="23.5219"
       y="20.6"
       width="5.69705"
       height="6.58889"
       filterUnits="userSpaceOnUse"
       color-interpolation-filters="sRGB"><feFlood
         flood-opacity="0"
         result="BackgroundImageFix"
         id="feFlood32" /><feBlend
         mode="normal"
         in="SourceGraphic"
         in2="BackgroundImageFix"
         result="shape"
         id="feBlend33" /><feGaussianBlur
         stdDeviation="0.15"
         result="effect1_foregroundBlur_18_13993"
         id="feGaussianBlur33" /></filter><filter
       id="filter3_f_18_13993"
       x="13.65"
       y="18.65"
       width="5.70005"
       height="5.70005"
       filterUnits="userSpaceOnUse"
       color-interpolation-filters="sRGB"><feFlood
         flood-opacity="0"
         result="BackgroundImageFix"
         id="feFlood33" /><feBlend
         mode="normal"
         in="SourceGraphic"
         in2="BackgroundImageFix"
         result="shape"
         id="feBlend34" /><feGaussianBlur
         stdDeviation="0.1"
         result="effect1_foregroundBlur_18_13993"
         id="feGaussianBlur34" /></filter><filter
       id="filter4_f_18_13993"
       x="5.60002"
       y="8.60002"
       width="7.79995"
       height="7.79995"
       filterUnits="userSpaceOnUse"
       color-interpolation-filters="sRGB"><feFlood
         flood-opacity="0"
         result="BackgroundImageFix"
         id="feFlood34" /><feBlend
         mode="normal"
         in="SourceGraphic"
         in2="BackgroundImageFix"
         result="shape"
         id="feBlend35" /><feGaussianBlur
         stdDeviation="0.15"
         result="effect1_foregroundBlur_18_13993"
         id="feGaussianBlur35" /></filter><filter
       id="filter5_f_18_13993"
       x="13.65"
       y="3.64998"
       width="4.14823"
       height="3.70005"
       filterUnits="userSpaceOnUse"
       color-interpolation-filters="sRGB"><feFlood
         flood-opacity="0"
         result="BackgroundImageFix"
         id="feFlood35" /><feBlend
         mode="normal"
         in="SourceGraphic"
         in2="BackgroundImageFix"
         result="shape"
         id="feBlend36" /><feGaussianBlur
         stdDeviation="0.1"
         result="effect1_foregroundBlur_18_13993"
         id="feGaussianBlur36" /></filter><filter
       id="filter6_f_18_13993"
       x="19.475"
       y="8.51455"
       width="4.4734"
       height="6.01045"
       filterUnits="userSpaceOnUse"
       color-interpolation-filters="sRGB"><feFlood
         flood-opacity="0"
         result="BackgroundImageFix"
         id="feFlood36" /><feBlend
         mode="normal"
         in="SourceGraphic"
         in2="BackgroundImageFix"
         result="shape"
         id="feBlend37" /><feGaussianBlur
         stdDeviation="0.2"
         result="effect1_foregroundBlur_18_13993"
         id="feGaussianBlur37" /></filter><filter
       id="filter7_f_18_13993"
       x="4.5829"
       y="22.6737"
       width="6.7172"
       height="6.28464"
       filterUnits="userSpaceOnUse"
       color-interpolation-filters="sRGB"><feFlood
         flood-opacity="0"
         result="BackgroundImageFix"
         id="feFlood37" /><feBlend
         mode="normal"
         in="SourceGraphic"
         in2="BackgroundImageFix"
         result="shape"
         id="feBlend38" /><feGaussianBlur
         stdDeviation="0.1"
         result="effect1_foregroundBlur_18_13993"
         id="feGaussianBlur38" /></filter><radialGradient
       id="paint0_radial_18_13993"
       cx="0"
       cy="0"
       r="1"
       gradientUnits="userSpaceOnUse"
       gradientTransform="matrix(-16.999842,18.000099,-18.000099,-16.999842,21.5,9.5)"><stop
         stop-color="#FEED6E"
         id="stop38-5" /><stop
         offset="1"
         stop-color="#F7CA32"
         id="stop39-8" /></radialGradient><radialGradient
       id="paint1_radial_18_13993"
       cx="0"
       cy="0"
       r="1"
       gradientUnits="userSpaceOnUse"
       gradientTransform="matrix(-7.6250847,19.499989,-19.499989,-7.6250847,26.2165,9.38104)"><stop
         offset="0.214438"
         stop-color="#A37BD0"
         id="stop40-7" /><stop
         offset="1"
         stop-color="#6D3E9E"
         id="stop41-6" /></radialGradient><linearGradient
       id="paint2_linear_18_13993"
       x1="16.5"
       y1="4.5"
       x2="14.5"
       y2="6.5"
       gradientUnits="userSpaceOnUse"><stop
         stop-color="#F5C224"
         id="stop42-4" /><stop
         offset="1"
         stop-color="#FFEF71"
         id="stop43-8" /></linearGradient><radialGradient
       id="paint3_radial_18_13993"
       cx="0"
       cy="0"
       r="1"
       gradientUnits="userSpaceOnUse"
       gradientTransform="matrix(2.2346605,-2.2148497,1.492335,1.5056832,22.5,11.9273)"><stop
         stop-color="#B287D7"
         id="stop44-4" /><stop
         offset="1"
         stop-color="#9B6AC1"
         id="stop45-0" /></radialGradient><radialGradient
       id="paint4_radial_18_13993"
       cx="0"
       cy="0"
       r="1"
       gradientUnits="userSpaceOnUse"
       gradientTransform="matrix(0,2.5,-2.5,0,22.5,11.5)"><stop
         offset="0.921167"
         stop-color="#A47ACB"
         stop-opacity="0"
         id="stop46-1" /><stop
         offset="0.977417"
         stop-color="#A47ACB"
         id="stop47-6" /></radialGradient><linearGradient
       id="paint5_linear_18_13993"
       x1="23.4352"
       y1="8.81854"
       x2="22.5"
       y2="14"
       gradientUnits="userSpaceOnUse"><stop
         stop-color="#A076CF"
         id="stop48-8" /><stop
         offset="1"
         stop-color="#A27ACE"
         id="stop49-1" /></linearGradient><linearGradient
       id="paint6_linear_18_13993"
       x1="11"
       y1="24.5"
       x2="4"
       y2="26"
       gradientUnits="userSpaceOnUse"><stop
         stop-color="#F5C224"
         id="stop50-2" /><stop
         offset="1"
         stop-color="#FCE35D"
         id="stop51-3" /></linearGradient><linearGradient
       id="paint7_linear_18_13993"
       x1="9.95836"
       y1="23.9568"
       x2="6.14499"
       y2="28.1084"
       gradientUnits="userSpaceOnUse"><stop
         stop-color="#0F0F0F"
         id="stop52-9" /><stop
         offset="1"
         stop-color="#704E8D"
         id="stop53-8" /></linearGradient><linearGradient
       id="paint8_linear_18_13993"
       x1="27.279"
       y1="20.881"
       x2="24.1383"
       y2="26.3498"
       gradientUnits="userSpaceOnUse"><stop
         stop-color="#7246A2"
         id="stop54-1" /><stop
         offset="0.999467"
         stop-color="#7E55AC"
         id="stop55-4" /></linearGradient><linearGradient
       id="paint9_linear_18_13993"
       x1="25.8727"
       y1="25.9748"
       x2="27.0602"
       y2="19.7873"
       gradientUnits="userSpaceOnUse"><stop
         stop-color="#8A60B5"
         id="stop56-1" /><stop
         offset="1"
         stop-color="#885BB3"
         id="stop57-7" /></linearGradient><radialGradient
       id="paint10_radial_18_13993"
       cx="0"
       cy="0"
       r="1"
       gradientUnits="userSpaceOnUse"
       gradientTransform="matrix(-0.0625019,-4.2812538,5.8438773,-0.08531459,27.279,25.0998)"><stop
         offset="0.777464"
         stop-color="#663F8E"
         stop-opacity="0"
         id="stop58-7" /><stop
         offset="0.991776"
         stop-color="#663F8E"
         id="stop59-2" /></radialGradient><linearGradient
       id="paint11_linear_18_13993"
       x1="18.1667"
       y1="19.8333"
       x2="14.8333"
       y2="23.1667"
       gradientUnits="userSpaceOnUse"><stop
         stop-color="#F5C224"
         id="stop60-9" /><stop
         offset="1"
         stop-color="#FFEF71"
         id="stop61-3" /></linearGradient><radialGradient
       id="paint12_radial_18_13993"
       cx="0"
       cy="0"
       r="1"
       gradientUnits="userSpaceOnUse"
       gradientTransform="matrix(-7.4780066,16.611397,-14.227606,-6.4048878,20.478,10.1969)"><stop
         stop-color="#FFED90"
         id="stop62-0" /><stop
         offset="1"
         stop-color="#FFB64A"
         id="stop63-3" /></radialGradient><radialGradient
       id="paint13_radial_18_13993"
       cx="0"
       cy="0"
       r="1"
       gradientUnits="userSpaceOnUse"
       gradientTransform="matrix(-10.508837,18.302029,-30.753774,-17.658501,17.7143,11.698)"><stop
         offset="0.319429"
         stop-color="#D97850"
         stop-opacity="0"
         id="stop64-9" /><stop
         offset="0.802421"
         stop-color="#D97850"
         id="stop65-4" /></radialGradient><radialGradient
       id="paint14_radial_18_13993"
       cx="0"
       cy="0"
       r="1"
       gradientUnits="userSpaceOnUse"
       gradientTransform="matrix(-21.554875,-10.834375,11.033281,-21.950598,24.6875,19.823)"><stop
         offset="0.678933"
         stop-color="#B69262"
         stop-opacity="0"
         id="stop66" /><stop
         offset="1"
         stop-color="#B69262"
         id="stop67" /></radialGradient><radialGradient
       id="paint15_radial_18_13993"
       cx="0"
       cy="0"
       r="1"
       gradientUnits="userSpaceOnUse"
       gradientTransform="matrix(-8.8623113,26.265567,-26.452418,-8.9253568,21.8623,6.18249)"><stop
         offset="0.820755"
         stop-color="#C3747F"
         stop-opacity="0"
         id="stop68" /><stop
         offset="1"
         stop-color="#C3747F"
         id="stop69" /></radialGradient><radialGradient
       id="paint16_radial_18_13993"
       cx="0"
       cy="0"
       r="1"
       gradientUnits="userSpaceOnUse"
       gradientTransform="matrix(3.6329099,1.6813492,-6.8869831,14.880781,2.9125,9.96944)"><stop
         stop-color="#B48C4F"
         id="stop70" /><stop
         offset="1"
         stop-color="#B48C4F"
         stop-opacity="0"
         id="stop71" /></radialGradient><linearGradient
       id="paint17_linear_18_13993"
       x1="18.1667"
       y1="19.8333"
       x2="14.8333"
       y2="23.1667"
       gradientUnits="userSpaceOnUse"><stop
         stop-color="#0F0F0F"
         id="stop72" /><stop
         offset="1"
         stop-color="#704E8D"
         id="stop73" /></linearGradient><radialGradient
       id="paint18_radial_18_13993"
       cx="0"
       cy="0"
       r="1"
       gradientUnits="userSpaceOnUse"
       gradientTransform="matrix(-2.7826985,2.7826985,-3.3233948,-3.3233948,17.3234,20.6766)"><stop
         offset="0.252371"
         stop-color="#F29E64"
         id="stop74" /><stop
         offset="1"
         stop-color="#FFD87E"
         id="stop75" /></radialGradient><radialGradient
       id="paint19_radial_18_13993"
       cx="0"
       cy="0"
       r="1"
       gradientUnits="userSpaceOnUse"
       gradientTransform="matrix(3.281251,-3.1249989,2.5464474,2.6737715,15.0937,23.0105)"><stop
         offset="0.837099"
         stop-color="#E3915B"
         stop-opacity="0"
         id="stop76" /><stop
         offset="1"
         stop-color="#E3915B"
         id="stop77" /></radialGradient><linearGradient
       id="paint20_linear_18_13993"
       x1="18.2495"
       y1="19.3197"
       x2="14.3687"
       y2="23.2567"
       gradientUnits="userSpaceOnUse"><stop
         stop-color="#FBAC52"
         id="stop78" /><stop
         offset="1"
         stop-color="#FFB053"
         id="stop79" /></linearGradient><linearGradient
       id="paint21_linear_18_13993"
       x1="11.8333"
       y1="10.1667"
       x2="7.16667"
       y2="14.8333"
       gradientUnits="userSpaceOnUse"><stop
         stop-color="#F5C224"
         id="stop80" /><stop
         offset="1"
         stop-color="#FFEF71"
         id="stop81" /></linearGradient><linearGradient
       id="paint22_linear_18_13993"
       x1="11.8333"
       y1="10.1667"
       x2="7.16667"
       y2="14.8333"
       gradientUnits="userSpaceOnUse"><stop
         stop-color="#0F0F0F"
         id="stop82" /><stop
         offset="1"
         stop-color="#704E8D"
         id="stop83" /></linearGradient><linearGradient
       id="paint23_linear_18_13993"
       x1="11.3253"
       y1="9.36067"
       x2="6.9342"
       y2="15.0573"
       gradientUnits="userSpaceOnUse"><stop
         stop-color="#E4AC50"
         id="stop84" /><stop
         offset="1"
         stop-color="#D79C38"
         id="stop85" /></linearGradient><radialGradient
       id="paint24_radial_18_13993"
       cx="0"
       cy="0"
       r="1"
       gradientUnits="userSpaceOnUse"
       gradientTransform="matrix(4.7500023,-5.1249946,5.1249946,4.7500023,7.0625,15.1355)"><stop
         stop-color="#F6B953"
         id="stop86" /><stop
         offset="1"
         stop-color="#D5A04B"
         id="stop87" /></radialGradient><radialGradient
       id="paint25_radial_18_13993"
       cx="0"
       cy="0"
       r="1"
       gradientUnits="userSpaceOnUse"
       gradientTransform="matrix(5.3749988,-5.4375015,4.0527796,4.0061939,6.8125,15.1355)"><stop
         offset="0.63575"
         stop-color="#BD8D44"
         stop-opacity="0"
         id="stop88" /><stop
         offset="1"
         stop-color="#BD8D44"
         id="stop89" /></radialGradient><radialGradient
       id="paint26_radial_18_13993"
       cx="0"
       cy="0"
       r="1"
       gradientUnits="userSpaceOnUse"
       gradientTransform="matrix(0,-4.81038,4.96523,0,9.5,13.5112)"><stop
         offset="0.755396"
         stop-color="#FFCA62"
         stop-opacity="0"
         id="stop90" /><stop
         offset="1"
         stop-color="#FFCA62"
         id="stop91" /></radialGradient><radialGradient
       id="paint27_radial_18_13993"
       cx="0"
       cy="0"
       r="1"
       gradientUnits="userSpaceOnUse"
       gradientTransform="matrix(-3.00536,0,0,-3.27072,17.0054,5.5)"><stop
         offset="0.43672"
         stop-color="#F3BB63"
         id="stop92" /><stop
         offset="1"
         stop-color="#FFF3A5"
         id="stop93" /></radialGradient><radialGradient
       id="paint28_radial_18_13993"
       cx="0"
       cy="0"
       r="1"
       gradientUnits="userSpaceOnUse"
       gradientTransform="matrix(2.75536,0,0,2.97042,14.6929,5.5)"><stop
         offset="0.639344"
         stop-color="#CD9E56"
         stop-opacity="0"
         id="stop94" /><stop
         offset="1"
         stop-color="#CD9E56"
         id="stop95" /></radialGradient><linearGradient
       id="paint29_linear_18_13993"
       x1="17.4482"
       y1="5.17036"
       x2="16.268"
       y2="5.17036"
       gradientUnits="userSpaceOnUse"><stop
         stop-color="#FDC36B"
         id="stop96" /><stop
         offset="1"
         stop-color="#FFDD7B"
         id="stop97" /></linearGradient><linearGradient
       id="paint30_linear_18_13993"
       x1="10.3498"
       y1="27.9481"
       x2="5.28729"
       y2="23.4793"
       gradientUnits="userSpaceOnUse"><stop
         stop-color="#B36558"
         id="stop98" /><stop
         offset="1"
         stop-color="#B96779"
         id="stop99" /></linearGradient><radialGradient
       id="paint31_radial_18_13993"
       cx="0"
       cy="0"
       r="1"
       gradientUnits="userSpaceOnUse"
       gradientTransform="matrix(-3.3914819,0.91179075,-0.5558691,-2.0676016,22.2776,11.5)"><stop
         stop-color="#FFF6AE"
         id="stop100" /><stop
         offset="1"
         stop-color="#FFE07D"
         id="stop101" /></radialGradient><linearGradient
       id="paint32_linear_18_13993"
       x1="10.3071"
       y1="24.331"
       x2="5.96361"
       y2="26.9931"
       gradientUnits="userSpaceOnUse"><stop
         stop-color="#BD6152"
         id="stop102" /><stop
         offset="1"
         stop-color="#AE6B71"
         id="stop103" /></linearGradient><radialGradient
       id="paint33_radial_18_13993"
       cx="0"
       cy="0"
       r="1"
       gradientUnits="userSpaceOnUse"
       gradientTransform="matrix(-4.4469947,-3.3568956,2.030202,-2.6894782,9.58399,27.0505)"><stop
         offset="0.887636"
         stop-color="#AF4C46"
         stop-opacity="0"
         id="stop104" /><stop
         offset="1"
         stop-color="#AF4C46"
         id="stop105" /></radialGradient></defs></svg>
